<svg class="ldi-kcv0vz" width="200px"  height="200px"  xmlns="http://www.w3.org/2000/svg" xmlns:xlink="http://www.w3.org/1999/xlink" viewBox="0 0 100 100" preserveAspectRatio="xMidYMid" style="background: none;"><!--?xml version="1.0" encoding="utf-8"?--><!--Generator: Adobe Illustrator 21.0.0, SVG Export Plug-In . SVG Version: 6.00 Build 0)--><svg version="1.1" id="Layer_1" xmlns="http://www.w3.org/2000/svg" xmlns:xlink="http://www.w3.org/1999/xlink" x="0px" y="0px" viewBox="0 0 100 100" style="transform-origin: 50px 50px 0px;" xml:space="preserve"><g style="transform-origin: 50px 50px 0px; transform: scale(0.6);"><g class="" style="transform-origin: 50px 50px 0px; animation-duration: 1s; animation-delay: -1s;"><style type="text/css" style="transform-origin: 50px 50px 0px; animation-duration: 1s; animation-delay: -1s;" class="ld ld-heartbeat">.st0,.st1,.st2{fill:none;stroke:#333;stroke-width:3.5;stroke-linecap:round;stroke-miterlimit:10}.st1,.st2{fill:#f0af6b}.st2{fill:none;stroke-linejoin:round}.st3{fill:#e0e0e0;stroke:#333434}.st3,.st4,.st5,.st6{stroke-width:3.5;stroke-miterlimit:10}.st4{fill:#f3e4c7;stroke:#333}.st5,.st6{stroke-linejoin:round}.st5{stroke-linecap:round;fill:none;stroke:#fff}.st6{fill:#fff;stroke:#333}.st7{fill:#333}.st8{fill:#e0e0e0;stroke:#333}.st10,.st8,.st9{stroke-width:3.5;stroke-miterlimit:10}.st9{opacity:.2;stroke:#000}.st10{fill:none;stroke:#333}.st11{fill:#e0e0e0}.st12{fill:#666766}.st13{fill:#fff}.st14{fill:#c33837;stroke:#333}.st14,.st15,.st16,.st17{stroke-width:3.5;stroke-miterlimit:10}.st15{opacity:.2;stroke-linejoin:round;stroke:#000}.st16,.st17{fill:#f4e6c8;stroke:#333}.st17{stroke:#fff;stroke-linecap:round}.st18{fill:#849b87}.st19{opacity:.2}.st20{stroke-width:3.5;stroke-linejoin:round;stroke-miterlimit:10}.st20,.st21{fill:#e0e0e0;stroke:#333}.st21,.st22,.st23{stroke-width:3.5;stroke-linecap:round;stroke-linejoin:round}.st22{opacity:.2;stroke:#000}.st23{fill:#666;stroke:#333}.st24{fill:#d65a62}.st25{fill:#f0af6b;stroke:#333;stroke-linecap:round;stroke-linejoin:round}.st25,.st26,.st27{stroke-width:3.5;stroke-miterlimit:10}.st26{opacity:.2;stroke:#000;stroke-linecap:round;stroke-linejoin:round}.st27{fill:#a8b980}.st27,.st28,.st29{stroke:#333;stroke-linecap:round;stroke-linejoin:round}.st28{stroke-width:3.5;stroke-miterlimit:10;fill:#d65a62}.st29{fill:#ea7c60}.st29,.st30,.st31{stroke-width:3.5;stroke-miterlimit:10}.st30{stroke-linecap:round;fill:#e0e0e0;stroke:#fff}.st31{fill:#666766;stroke:#333}.st31,.st32,.st33,.st34{stroke-linejoin:round}.st32{stroke:#333;stroke-width:3.5;stroke-miterlimit:10;fill:none}.st33,.st34{fill:#67503b}.st33{stroke-width:3.5;stroke-miterlimit:10;stroke:#333}.st34{stroke:#fff;stroke-linecap:round}.st34,.st35,.st36{stroke-width:3.5;stroke-miterlimit:10}.st35{stroke:#333;stroke-linejoin:round;fill:#f47e5f}.st36{fill:#f4e6c8}.st36,.st37,.st38{stroke:#333;stroke-linejoin:round}.st37{stroke-width:3.5;stroke-miterlimit:10;fill:#f7b26a}.st38{fill:#333;stroke-linecap:round}.st38,.st39,.st40{stroke-width:3.5;stroke-miterlimit:10}.st39{stroke-linejoin:round;fill:none;stroke:#fff}.st40{fill:#feffff;stroke:#333}.st41{fill:#f0af6b}.st42{opacity:.3;fill:#f3e4c7}.st43,.st44{fill:#f0af6b;stroke-miterlimit:10}.st43{stroke-width:3.5;stroke:#333}.st44{stroke:#fff;stroke-linecap:round}.st44,.st45,.st46{stroke-width:3.5}.st45{stroke-miterlimit:10;fill:none;stroke:#fff}.st46{fill:#65503a;stroke:#333;stroke-linejoin:round}.st46,.st47,.st48{stroke-miterlimit:10}.st47{stroke:#333;stroke-width:3.5;fill:#ea7c60}.st48{fill:#a8b980}.st48,.st49,.st50,.st51{stroke:#333;stroke-width:3.5}.st49{fill:#76a0b7;stroke-miterlimit:10}.st50,.st51{stroke-linecap:round;stroke-linejoin:round}.st50{stroke-miterlimit:10;fill:#65503a}.st51{fill:#b93a38}.st51,.st52,.st53{stroke-miterlimit:10}.st52{fill:none;stroke-width:3.5;stroke-linecap:round;stroke:#fff}.st53{opacity:.2;stroke:#000}.st54,.st55{stroke:#333;stroke-linecap:round;stroke-linejoin:round}.st54{stroke-width:3.5;stroke-miterlimit:10;fill:#fff}.st55{fill:#666}.st55,.st56,.st57{stroke-width:3.5;stroke-miterlimit:10}.st56{stroke-linecap:round;stroke-linejoin:round;fill:#666;stroke:#fff}.st57{fill:#333;stroke:#333}.st58,.st59,.st60,.st61,.st62,.st63{stroke-width:3.5;stroke-linecap:round}.st58{stroke-miterlimit:10;fill:#f3e4c7;stroke:#fff}.st59,.st60,.st61,.st62,.st63{fill:none;stroke:#333;stroke-linejoin:round}.st60,.st61,.st62,.st63{stroke:#fff}.st61,.st62,.st63{fill:#f0af6b;stroke:#333}.st62,.st63{fill:#666;stroke:#fff}.st63{fill:#e0e0e0}.st64{fill:#fff;stroke:#333}.st64,.st65,.st66,.st67{stroke-width:3.5;stroke-miterlimit:10}.st65{fill:#666;stroke:#333}.st66,.st67{stroke:#000;stroke-linejoin:round}.st67{fill:#e15c64;stroke:#333}.st68{fill:#77a4bd}.st69{stroke-linejoin:round}.st69,.st70,.st71,.st72{fill:none;stroke:#fff;stroke-width:2;stroke-miterlimit:10}.st71,.st72{fill:#333;stroke-width:.3}.st72{fill:none;stroke:#333;stroke-width:2}.st73{fill:#acbd81;stroke:#333}.st73,.st74,.st75{stroke-width:3.5;stroke-miterlimit:10}.st74{fill:#849b87;stroke:#333}.st75{stroke:#b93a38}.st75,.st76{fill:none}.st77{fill:#f3e4c7}.st78{fill:#e15c64}.st79{fill:#f7b26a}.st80{fill:#f7faf8}.st81,.st82{fill:#f7b26a;stroke:#333;stroke-width:3.5;stroke-miterlimit:10}.st82{fill:#77a4bd}.st83{fill:#e15c64;stroke:#333}.st83,.st84,.st85{stroke-width:3.5;stroke-miterlimit:10}.st84{opacity:.2;stroke:#333}.st85{fill:#666}.st85,.st86,.st87{stroke:#333434}.st86{stroke-width:3.5;stroke-linejoin:round;stroke-miterlimit:10;fill:#65503a}.st87{fill:none;stroke-linecap:round}.st87,.st88,.st89{stroke-width:3.5;stroke-miterlimit:10}.st88{opacity:.2;stroke:#010101;fill:#010101}.st89{fill:#9ec4d2;stroke-linecap:round;stroke-linejoin:round}.st89,.st90,.st91{stroke:#333434}.st90{stroke-width:3.5;stroke-linecap:round;stroke-linejoin:round;stroke-miterlimit:10;fill:none}.st91{fill:#9ec4d2}.st91,.st92,.st93{stroke-width:3.5;stroke-miterlimit:10}.st92{fill:#77a0b7;stroke:#333434}.st93{stroke:#010101;stroke-linecap:round;stroke-linejoin:round}.st93,.st94{opacity:.2;fill:#010101}.st95{fill:#333434}.st96,.st97{fill:none;stroke:#fff;stroke-width:1.5;stroke-linecap:round;stroke-miterlimit:10}.st97{fill:#a8b980;stroke-width:3.5}</style><g style="transform-origin: 50px 50px 0px;"><g style="transform-origin: 50px 50px 0px; animation-duration: 1s; animation-delay: -0.954545s;" class="ld ld-heartbeat"><rect x="45" y="48" class="st8" width="10" height="31" fill="rgb(224, 224, 224)" stroke="rgb(51, 51, 51)" style="fill: rgb(224, 224, 224); stroke: rgb(51, 51, 51);"></rect></g><g style="transform-origin: 50px 50px 0px; animation-duration: 1s; animation-delay: -0.909091s;" class="ld ld-heartbeat"><path class="st20" d="M70,85H30l0.457-1.702C31.456,79.583,34.825,77,38.672,77h22.655c3.848,0,7.216,2.583,8.215,6.298L70,85z" fill="rgb(224, 224, 224)" stroke="rgb(51, 51, 51)" style="fill: rgb(224, 224, 224); stroke: rgb(51, 51, 51);"></path></g><g style="transform-origin: 50px 50px 0px; animation-duration: 1s; animation-delay: -0.863636s;" class="ld ld-heartbeat"><path class="st9" d="M52,48v37h18l-0.457-1.702C68.544,79.583,65.175,77,61.328,77H55V48H52z" fill="rgb(0, 0, 0)" stroke="rgb(0, 0, 0)" style="fill: rgb(0, 0, 0); stroke: rgb(0, 0, 0);"></path></g></g><g style="transform-origin: 50px 50px 0px; animation-duration: 1s; animation-delay: -0.818182s;" class="ld ld-heartbeat"><path class="st65" d="M79.333,63H20.667C18.089,63,16,60.911,16,58.333V23.667C16,21.089,18.089,19,20.667,19h58.667 C81.911,19,84,21.089,84,23.667v34.667C84,60.911,81.911,63,79.333,63z" stroke="rgb(51, 51, 51)" fill="rgb(102, 102, 102)" style="stroke: rgb(51, 51, 51); fill: rgb(102, 102, 102);"></path></g><g style="transform-origin: 50px 50px 0px; animation-duration: 1s; animation-delay: -0.772727s;" class="ld ld-heartbeat"><path class="st52" d="M21,30.125v-3.459C21,25.194,22.194,24,23.667,24H25" stroke="rgb(255, 255, 255)" style="stroke: rgb(255, 255, 255);"></path></g><g style="transform-origin: 50px 50px 0px; animation-duration: 1s; animation-delay: -0.727273s;" class="ld ld-heartbeat"><line class="st52" x1="21" y1="36.75" x2="21" y2="35.625" stroke="rgb(255, 255, 255)" style="stroke: rgb(255, 255, 255);"></line></g><g style="transform-origin: 50px 50px 0px;"><g style="transform-origin: 50px 50px 0px; animation-duration: 1s; animation-delay: -0.681818s;" class="ld ld-heartbeat"><path class="st13" d="M35.299,37.464v-5.751c0-0.514,0.534-1.019,1.079-1.019h2.341c0.85,0,1.421-0.537,1.421-1.336 c0-0.8-0.584-1.358-1.421-1.358h-2.185c-2.606,0-4.498,1.628-4.498,3.871v5.298c0,0.747-0.436,1.198-1.347,1.414l-0.863,0.166 v2.501l0.84,0.16c0.935,0.221,1.37,0.673,1.37,1.42v5.297c0,2.244,1.892,3.872,4.498,3.872h2.185c0.837,0,1.421-0.558,1.421-1.358 c0-0.8-0.571-1.337-1.421-1.337h-2.341c-0.545,0-1.079-0.505-1.079-1.019v-5.751c0-0.742-0.294-1.422-0.903-2.083 c-0.152-0.161-0.32-0.311-0.508-0.453c0.188-0.143,0.357-0.294,0.512-0.457C35.005,38.886,35.299,38.207,35.299,37.464z" fill="rgb(255, 255, 255)" style="fill: rgb(255, 255, 255);"></path></g><g style="transform-origin: 50px 50px 0px; animation-duration: 1s; animation-delay: -0.636364s;" class="ld ld-heartbeat"><path class="st13" d="M56.143,37.053c0-0.832-0.897-1.947-1.815-1.947c-0.273,0-0.516,0.078-0.776,0.281l-2.176,2.214l0.289-3.048 c0.042-0.266-0.037-0.53-0.221-0.747c-0.37-0.433-1.09-0.594-1.456-0.594c-0.301,0-1.046,0.146-1.433,0.6 c-0.184,0.215-0.262,0.478-0.225,0.707l0.271,3.062l-2.209-2.243c-0.204-0.154-0.447-0.231-0.722-0.231 c-0.918,0-1.815,1.115-1.815,1.947c0,0.543,0.237,0.792,0.459,0.907l2.91,2.04l-2.904,2.039c-0.309,0.175-0.465,0.481-0.465,0.908 c0,0.858,0.854,1.947,1.815,1.947c0.162,0,0.499,0,0.778-0.281l2.152-2.19l-0.268,3.025c-0.041,0.263,0.037,0.526,0.221,0.742 c0.388,0.454,1.133,0.6,1.433,0.6c0.366,0,1.085-0.162,1.455-0.595c0.185-0.216,0.264-0.481,0.226-0.716l-0.292-3.078l2.177,2.214 c0.277,0.28,0.613,0.28,0.774,0.28c0.961,0,1.815-1.089,1.815-1.947c0-0.157,0-0.628-0.439-0.895L52.774,40l2.911-2.04 C55.906,37.845,56.143,37.596,56.143,37.053z" fill="rgb(255, 255, 255)" style="fill: rgb(255, 255, 255);"></path></g><g style="transform-origin: 50px 50px 0px; animation-duration: 1s; animation-delay: -0.590909s;" class="ld ld-heartbeat"><path class="st13" d="M69.337,38.589c-0.923-0.224-1.371-0.688-1.371-1.419v-5.298c0-2.243-1.893-3.871-4.5-3.871h-2.183 c-0.837,0-1.421,0.558-1.421,1.358c0,0.799,0.571,1.336,1.421,1.336h2.342c0.544,0,1.078,0.505,1.078,1.019v5.751 c0,0.741,0.293,1.421,0.902,2.085c0.154,0.161,0.322,0.311,0.508,0.451c-0.187,0.141-0.355,0.292-0.514,0.458 c-0.604,0.658-0.896,1.338-0.896,2.078v5.751c0,0.514-0.534,1.019-1.078,1.019h-2.342c-0.85,0-1.421,0.537-1.421,1.337 c0,0.8,0.584,1.358,1.421,1.358h2.183c2.607,0,4.5-1.628,4.5-3.872V42.83c0-0.732,0.448-1.196,1.344-1.414l0.864-0.165V38.75 L69.337,38.589z" fill="rgb(255, 255, 255)" style="fill: rgb(255, 255, 255);"></path></g></g><g style="transform-origin: 50px 50px 0px; animation-duration: 1s; animation-delay: -0.545455s;" class="ld ld-heartbeat"><path class="st9" d="M79.333,19h-12.3l-12.48,44h24.779C81.911,63,84,60.911,84,58.333V23.667C84,21.089,81.911,19,79.333,19z" fill="rgb(0, 0, 0)" stroke="rgb(0, 0, 0)" style="fill: rgb(0, 0, 0); stroke: rgb(0, 0, 0);"></path></g><metadata xmlns:d="https://loading.io/stock/" style="transform-origin: 50px 50px 0px; animation-duration: 1s; animation-delay: -0.5s;" class="ld ld-heartbeat">
<d:name style="transform-origin: 50px 50px 0px; animation-duration: 1s; animation-delay: -0.454545s;" class="ld ld-heartbeat">css</d:name>
<d:tags style="transform-origin: 50px 50px 0px; animation-duration: 1s; animation-delay: -0.409091s;" class="ld ld-heartbeat">css,developer,code,frontend,web,engineer,coding,hack,software</d:tags>
<d:license style="transform-origin: 50px 50px 0px; animation-duration: 1s; animation-delay: -0.363636s;" class="ld ld-heartbeat">cc-by</d:license>
<d:slug style="transform-origin: 50px 50px 0px; animation-duration: 1s; animation-delay: -0.318182s;" class="ld ld-heartbeat">kcv0vz</d:slug>
</metadata></g></g><style type="text/css" style="transform-origin: 50px 50px 0px; animation-duration: 1s; animation-delay: -0.272727s;" class="ld ld-heartbeat">path,ellipse,circle,rect,polygon,polyline,line { stroke-width: 0; }@keyframes ld-heartbeat {
  0% {
    -webkit-transform: scale(1.05);
    transform: scale(1.05);
  }
  5% {
    -webkit-transform: scale(1.25);
    transform: scale(1.25);
  }
  39% {
    -webkit-transform: scale(0.9);
    transform: scale(0.9);
  }
  45% {
    -webkit-transform: scale(1.15);
    transform: scale(1.15);
  }
  60% {
    -webkit-transform: scale(1.05);
    transform: scale(1.05);
  }
  100% {
    -webkit-transform: scale(1);
    transform: scale(1);
  }
}
@-webkit-keyframes ld-heartbeat {
  0% {
    -webkit-transform: scale(1.05);
    transform: scale(1.05);
  }
  5% {
    -webkit-transform: scale(1.25);
    transform: scale(1.25);
  }
  39% {
    -webkit-transform: scale(0.9);
    transform: scale(0.9);
  }
  45% {
    -webkit-transform: scale(1.15);
    transform: scale(1.15);
  }
  60% {
    -webkit-transform: scale(1.05);
    transform: scale(1.05);
  }
  100% {
    -webkit-transform: scale(1);
    transform: scale(1);
  }
}
.ld.ld-heartbeat {
  -webkit-animation: ld-heartbeat 0.8s infinite cubic-bezier(0.215, 0.61, 0.355, 1);
  animation: ld-heartbeat 0.8s infinite cubic-bezier(0.215, 0.61, 0.355, 1);
}
</style></svg></svg>