<svg class="ldi-umk2mp" width="200px"  height="200px"  xmlns="http://www.w3.org/2000/svg" xmlns:xlink="http://www.w3.org/1999/xlink" viewBox="0 0 100 100" preserveAspectRatio="xMidYMid" style="background: none;"><!--?xml version="1.0" encoding="utf-8"?--><!--Generator: Adobe Illustrator 21.0.0, SVG Export Plug-In . SVG Version: 6.00 Build 0)--><svg version="1.1" id="Layer_1" xmlns="http://www.w3.org/2000/svg" xmlns:xlink="http://www.w3.org/1999/xlink" x="0px" y="0px" viewBox="0 0 100 100" style="transform-origin: 50px 50px 0px;" xml:space="preserve"><g style="transform-origin: 50px 50px 0px; transform: scale(0.6);"><g style="transform-origin: 50px 50px 0px;"><style type="text/css" class="ld ld-spin" style="transform-origin: 50px 50px 0px; animation-duration: 1s; animation-delay: -1s;">.st0,.st1,.st2{fill:none;stroke:#333;stroke-width:3.5;stroke-linecap:round;stroke-miterlimit:10}.st1,.st2{fill:#f0af6b}.st2{fill:none;stroke-linejoin:round}.st3{fill:#e0e0e0;stroke:#333434}.st3,.st4,.st5,.st6{stroke-width:3.5;stroke-miterlimit:10}.st4{fill:#f3e4c7;stroke:#333}.st5,.st6{stroke-linejoin:round}.st5{stroke-linecap:round;fill:none;stroke:#fff}.st6{fill:#fff;stroke:#333}.st7{fill:#333}.st8{fill:#e0e0e0;stroke:#333}.st10,.st8,.st9{stroke-width:3.5;stroke-miterlimit:10}.st9{opacity:.2;stroke:#000}.st10{fill:none;stroke:#333}.st11{fill:#e0e0e0}.st12{fill:#666766}.st13{fill:#fff}.st14{fill:#c33837;stroke:#333}.st14,.st15,.st16,.st17{stroke-width:3.5;stroke-miterlimit:10}.st15{opacity:.2;stroke-linejoin:round;stroke:#000}.st16,.st17{fill:#f4e6c8;stroke:#333}.st17{stroke:#fff;stroke-linecap:round}.st18{fill:#849b87}.st19{opacity:.2}.st20{stroke-width:3.5;stroke-linejoin:round;stroke-miterlimit:10}.st20,.st21{fill:#e0e0e0;stroke:#333}.st21,.st22,.st23{stroke-width:3.5;stroke-linecap:round;stroke-linejoin:round}.st22{opacity:.2;stroke:#000}.st23{fill:#666;stroke:#333}.st24{fill:#d65a62}.st25{fill:#f0af6b;stroke:#333;stroke-linecap:round;stroke-linejoin:round}.st25,.st26,.st27{stroke-width:3.5;stroke-miterlimit:10}.st26{opacity:.2;stroke:#000;stroke-linecap:round;stroke-linejoin:round}.st27{fill:#a8b980}.st27,.st28,.st29{stroke:#333;stroke-linecap:round;stroke-linejoin:round}.st28{stroke-width:3.5;stroke-miterlimit:10;fill:#d65a62}.st29{fill:#ea7c60}.st29,.st30,.st31{stroke-width:3.5;stroke-miterlimit:10}.st30{stroke-linecap:round;fill:#e0e0e0;stroke:#fff}.st31{fill:#666766;stroke:#333}.st31,.st32,.st33,.st34{stroke-linejoin:round}.st32{stroke:#333;stroke-width:3.5;stroke-miterlimit:10;fill:none}.st33,.st34{fill:#67503b}.st33{stroke-width:3.5;stroke-miterlimit:10;stroke:#333}.st34{stroke:#fff;stroke-linecap:round}.st34,.st35,.st36{stroke-width:3.5;stroke-miterlimit:10}.st35{stroke:#333;stroke-linejoin:round;fill:#f47e5f}.st36{fill:#f4e6c8}.st36,.st37,.st38{stroke:#333;stroke-linejoin:round}.st37{stroke-width:3.5;stroke-miterlimit:10;fill:#f7b26a}.st38{fill:#333;stroke-linecap:round}.st38,.st39,.st40{stroke-width:3.5;stroke-miterlimit:10}.st39{stroke-linejoin:round;fill:none;stroke:#fff}.st40{fill:#feffff;stroke:#333}.st41{fill:#f0af6b}.st42{opacity:.3;fill:#f3e4c7}.st43,.st44{fill:#f0af6b;stroke-miterlimit:10}.st43{stroke-width:3.5;stroke:#333}.st44{stroke:#fff;stroke-linecap:round}.st44,.st45,.st46{stroke-width:3.5}.st45{stroke-miterlimit:10;fill:none;stroke:#fff}.st46{fill:#65503a;stroke:#333;stroke-linejoin:round}.st46,.st47,.st48{stroke-miterlimit:10}.st47{stroke:#333;stroke-width:3.5;fill:#ea7c60}.st48{fill:#a8b980}.st48,.st49,.st50,.st51{stroke:#333;stroke-width:3.5}.st49{fill:#76a0b7;stroke-miterlimit:10}.st50,.st51{stroke-linecap:round;stroke-linejoin:round}.st50{stroke-miterlimit:10;fill:#65503a}.st51{fill:#b93a38}.st51,.st52,.st53{stroke-miterlimit:10}.st52{fill:none;stroke-width:3.5;stroke-linecap:round;stroke:#fff}.st53{opacity:.2;stroke:#000}.st54,.st55{stroke:#333;stroke-linecap:round;stroke-linejoin:round}.st54{stroke-width:3.5;stroke-miterlimit:10;fill:#fff}.st55{fill:#666}.st55,.st56,.st57{stroke-width:3.5;stroke-miterlimit:10}.st56{stroke-linecap:round;stroke-linejoin:round;fill:#666;stroke:#fff}.st57{fill:#333;stroke:#333}.st58,.st59,.st60,.st61,.st62,.st63{stroke-width:3.5;stroke-linecap:round}.st58{stroke-miterlimit:10;fill:#f3e4c7;stroke:#fff}.st59,.st60,.st61,.st62,.st63{fill:none;stroke:#333;stroke-linejoin:round}.st60,.st61,.st62,.st63{stroke:#fff}.st61,.st62,.st63{fill:#f0af6b;stroke:#333}.st62,.st63{fill:#666;stroke:#fff}.st63{fill:#e0e0e0}.st64{fill:#fff;stroke:#333}.st64,.st65,.st66,.st67{stroke-width:3.5;stroke-miterlimit:10}.st65{fill:#666;stroke:#333}.st66,.st67{stroke:#000;stroke-linejoin:round}.st67{fill:#e15c64;stroke:#333}.st68{fill:#77a4bd}.st69{stroke-linejoin:round}.st69,.st70,.st71,.st72{fill:none;stroke:#fff;stroke-width:2;stroke-miterlimit:10}.st71,.st72{fill:#333;stroke-width:.3}.st72{fill:none;stroke:#333;stroke-width:2}.st73{fill:#acbd81;stroke:#333}.st73,.st74,.st75{stroke-width:3.5;stroke-miterlimit:10}.st74{fill:#849b87;stroke:#333}.st75{stroke:#b93a38}.st75,.st76{fill:none}.st77{fill:#f3e4c7}.st78{fill:#e15c64}.st79{fill:#f7b26a}.st80{fill:#f7faf8}.st81,.st82{fill:#f7b26a;stroke:#333;stroke-width:3.5;stroke-miterlimit:10}.st82{fill:#77a4bd}.st83{fill:#e15c64;stroke:#333}.st83,.st84,.st85{stroke-width:3.5;stroke-miterlimit:10}.st84{opacity:.2;stroke:#333}.st85{fill:#666}.st85,.st86,.st87{stroke:#333434}.st86{stroke-width:3.5;stroke-linejoin:round;stroke-miterlimit:10;fill:#65503a}.st87{fill:none;stroke-linecap:round}.st87,.st88,.st89{stroke-width:3.5;stroke-miterlimit:10}.st88{opacity:.2;stroke:#010101;fill:#010101}.st89{fill:#9ec4d2;stroke-linecap:round;stroke-linejoin:round}.st89,.st90,.st91{stroke:#333434}.st90{stroke-width:3.5;stroke-linecap:round;stroke-linejoin:round;stroke-miterlimit:10;fill:none}.st91{fill:#9ec4d2}.st91,.st92,.st93{stroke-width:3.5;stroke-miterlimit:10}.st92{fill:#77a0b7;stroke:#333434}.st93{stroke:#010101;stroke-linecap:round;stroke-linejoin:round}.st93,.st94{opacity:.2;fill:#010101}.st95{fill:#333434}.st96,.st97{fill:none;stroke:#fff;stroke-width:1.5;stroke-linecap:round;stroke-miterlimit:10}.st97{fill:#a8b980;stroke-width:3.5}</style><g style="transform-origin: 50px 50px 0px;"><g class="ld ld-spin" style="transform-origin: 50px 50px 0px; animation-duration: 1s; animation-delay: -0.947368s;"><path class="st77" d="M49.277,68.975c-1.821,0-3.302-1.481-3.302-3.302v-0.222c-4.177-1.31-7.329-4.572-8.208-8.623 c-0.214-0.986,0.026-2.002,0.658-2.785c0.628-0.778,1.561-1.225,2.561-1.225h1.501c1.492,0,2.773,0.993,3.188,2.471 c0.068,0.242,0.169,0.477,0.301,0.699v-2.752c-6.942-1.986-8.45-6.182-8.45-9.451c0-4.785,3.197-8.303,8.45-9.447v-0.011 c0-1.82,1.481-3.302,3.302-3.302h1.445c1.821,0,3.302,1.481,3.302,3.302v0.222c4.177,1.31,7.329,4.572,8.208,8.623 c0.214,0.986-0.026,2.002-0.658,2.785c-0.628,0.778-1.561,1.225-2.561,1.225h-1.501c-1.492,0-2.773-0.993-3.188-2.471 c-0.068-0.242-0.169-0.477-0.301-0.699v2.824c7.314,2.288,8.45,6.802,8.45,9.379c0,4.785-3.197,8.303-8.45,9.447v0.011 c0,1.82-1.481,3.302-3.302,3.302H49.277z M54.025,57.112c0.4-0.352,0.4-0.71,0.4-0.897c0-0.131-0.121-0.327-0.4-0.558V57.112z M45.975,42.888c-0.4,0.352-0.4,0.71-0.4,0.897c0,0.189,0,0.446,0.4,0.759V42.888z" fill="rgb(243, 228, 199)" style="fill: rgb(243, 228, 199);"></path></g><g class="ld ld-spin" style="transform-origin: 50px 50px 0px; animation-duration: 1s; animation-delay: -0.894737s;"><path class="st7" d="M50.723,32.775c0.857,0,1.552,0.695,1.552,1.552v1.58c4.156,0.82,7.423,3.833,8.248,7.636 c0.21,0.969-0.517,1.889-1.508,1.889h-1.501c-0.718,0-1.309-0.503-1.503-1.193c-0.466-1.661-1.882-3.015-3.736-3.636v7.559 c7.296,1.831,8.45,5.762,8.45,8.054c0,4.397-3.182,7.326-8.45,7.968v1.489c0,0.857-0.695,1.552-1.552,1.552h-1.445 c-0.857,0-1.552-0.695-1.552-1.552v-1.58c-4.156-0.82-7.423-3.833-8.248-7.636c-0.21-0.969,0.517-1.889,1.508-1.889h1.501 c0.718,0,1.309,0.503,1.503,1.193c0.466,1.661,1.882,3.015,3.736,3.636v-7.523c-3.463-0.77-8.45-2.584-8.45-8.09 c0-4.397,3.182-7.326,8.45-7.968v-1.489c0-0.857,0.695-1.552,1.552-1.552H50.723 M47.725,47.163v-6.758 c-1.954,0.32-3.9,1.187-3.9,3.38C43.825,44.67,43.827,46.055,47.725,47.163 M52.275,59.595c1.954-0.32,3.9-1.187,3.9-3.38 c0-1.668-1.98-2.706-3.9-3.323V59.595 M50.723,29.275h-1.445c-2.299,0-4.245,1.544-4.854,3.65 c-5.403,1.575-8.648,5.554-8.648,10.86c0,3.46,1.363,5.925,3.245,7.68c-0.754,0.319-1.427,0.822-1.958,1.48 c-0.966,1.198-1.332,2.748-1.006,4.254c0.933,4.298,4.064,7.822,8.278,9.522c0.484,2.284,2.517,4.004,4.943,4.004h1.445 c2.299,0,4.245-1.544,4.854-3.65c5.403-1.575,8.648-5.554,8.648-10.86c0-1.67-0.444-4.871-3.403-7.616 c0.818-0.313,1.548-0.84,2.116-1.544c0.966-1.198,1.332-2.748,1.006-4.254c-0.933-4.298-4.064-7.822-8.278-9.522 C55.181,30.994,53.149,29.275,50.723,29.275L50.723,29.275z" fill="rgb(51, 51, 51)" style="fill: rgb(51, 51, 51);"></path></g></g><g style="transform-origin: 50px 50px 0px;"><g class="ld ld-spin" style="transform-origin: 50px 50px 0px; animation-duration: 1s; animation-delay: -0.842105s;"><path class="st68" d="M79.57,55.332c-0.907,0-1.759-0.353-2.4-0.993l-8.268-8.266c-0.5-0.5-0.65-1.253-0.379-1.907 c0.271-0.653,0.909-1.08,1.617-1.08h4.912C73.56,30.486,62.889,20.867,50,20.867c-9.422,0-17.994,5.19-22.369,13.545 c-0.215,0.411-0.585,0.721-1.028,0.858c-0.17,0.054-0.347,0.08-0.522,0.08c-0.28,0-0.559-0.067-0.812-0.2l-4.584-2.401 c-0.856-0.448-1.187-1.506-0.738-2.361C25.824,19.164,37.34,12.192,50,12.192c17.72,0,32.241,13.438,33.768,30.894H89 c0.708,0,1.346,0.427,1.617,1.08c0.271,0.654,0.121,1.407-0.379,1.907l-8.267,8.265C81.329,54.979,80.477,55.332,79.57,55.332z" fill="rgb(119, 164, 189)" style="fill: rgb(119, 164, 189);"></path></g><g class="ld ld-spin" style="transform-origin: 50px 50px 0px; animation-duration: 1s; animation-delay: -0.789474s;"><path class="st7" d="M50,13.942c17.308,0,31.458,13.746,32.125,30.893H89L80.733,53.1c-0.321,0.321-0.742,0.482-1.163,0.482 c-0.421,0-0.842-0.161-1.163-0.482l-8.267-8.265h6.81C76.288,30.542,64.454,19.117,50,19.117c-10.076,0-19.241,5.549-23.92,14.483 l-4.584-2.401C27.071,20.555,37.993,13.942,50,13.942 M50,10.442c-13.313,0-25.423,7.331-31.604,19.133 c-0.897,1.712-0.236,3.827,1.477,4.724l4.584,2.401c0.506,0.265,1.063,0.4,1.624,0.4c0.351,0,0.703-0.053,1.044-0.159 c0.886-0.277,1.626-0.895,2.056-1.717C33.254,27.448,41.231,22.617,50,22.617c11.318,0,20.798,7.97,22.999,18.718H70.14 c-1.416,0-2.692,0.853-3.234,2.161c-0.542,1.308-0.242,2.813,0.759,3.814l8.267,8.265c0.972,0.972,2.264,1.507,3.638,1.507 c1.374,0,2.666-0.535,3.638-1.507l8.267-8.264c1.001-1.001,1.301-2.506,0.759-3.814c-0.542-1.308-1.818-2.161-3.234-2.161h-3.667 c-1.061-7.935-4.755-15.257-10.601-20.896C68.05,13.993,59.266,10.442,50,10.442L50,10.442z" fill="rgb(51, 51, 51)" style="fill: rgb(51, 51, 51);"></path></g></g><g style="transform-origin: 50px 50px 0px;"><g class="ld ld-spin" style="transform-origin: 50px 50px 0px; animation-duration: 1s; animation-delay: -0.736842s;"><path class="st78" d="M50,87.808c-17.72,0-32.241-13.438-33.768-30.894H11c-0.708,0-1.346-0.427-1.617-1.08 c-0.271-0.654-0.121-1.407,0.379-1.907l8.267-8.265c0.642-0.642,1.494-0.994,2.4-0.994c0.907,0,1.759,0.353,2.4,0.993l8.268,8.266 c0.5,0.5,0.65,1.253,0.379,1.907c-0.271,0.653-0.909,1.08-1.617,1.08h-4.912C26.44,69.514,37.111,79.133,50,79.133 c9.422,0,17.994-5.19,22.369-13.545c0.215-0.411,0.585-0.721,1.028-0.858c0.17-0.054,0.347-0.08,0.522-0.08 c0.28,0,0.559,0.067,0.812,0.2l4.584,2.401c0.856,0.448,1.187,1.506,0.738,2.361C74.176,80.836,62.66,87.808,50,87.808z" fill="rgb(225, 92, 100)" style="fill: rgb(225, 92, 100);"></path></g><g class="ld ld-spin" style="transform-origin: 50px 50px 0px; animation-duration: 1s; animation-delay: -0.684211s;"><path class="st7" d="M20.43,46.418c0.421,0,0.842,0.161,1.163,0.482l8.267,8.265h-6.81C23.712,69.458,35.546,80.883,50,80.883 c10.076,0,19.241-5.549,23.92-14.483l4.584,2.401C72.929,79.445,62.007,86.058,50,86.058c-17.308,0-31.458-13.746-32.125-30.893H11 l8.267-8.265C19.588,46.579,20.009,46.418,20.43,46.418 M20.43,42.918c-1.374,0-2.666,0.535-3.638,1.507l-8.267,8.265 c-1.001,1.001-1.301,2.506-0.759,3.814S9.584,58.664,11,58.664h3.667c1.061,7.935,4.755,15.257,10.601,20.896 C31.95,86.007,40.734,89.558,50,89.558c13.313,0,25.423-7.331,31.604-19.133c0.897-1.712,0.236-3.827-1.477-4.724l-4.584-2.401 c-0.506-0.265-1.063-0.4-1.624-0.4c-0.351,0-0.703,0.053-1.044,0.159c-0.886,0.277-1.626,0.895-2.056,1.717 C66.746,72.552,58.769,77.383,50,77.383c-11.318,0-20.798-7.97-22.999-18.718h2.858c1.416,0,2.692-0.853,3.234-2.161 s0.242-2.813-0.759-3.814l-8.267-8.265C23.096,43.453,21.804,42.918,20.43,42.918L20.43,42.918z" fill="rgb(51, 51, 51)" style="fill: rgb(51, 51, 51);"></path></g></g><metadata xmlns:d="https://loading.io/stock/" class="ld ld-spin" style="transform-origin: 50px 50px 0px; animation-duration: 1s; animation-delay: -0.631579s;">
<d:name class="ld ld-spin" style="transform-origin: 50px 50px 0px; animation-duration: 1s; animation-delay: -0.578947s;">economics</d:name>
<d:tags class="ld ld-spin" style="transform-origin: 50px 50px 0px; animation-duration: 1s; animation-delay: -0.526316s;">economics,currency,trade,market,finance,accounting,bank,currency,treasury,budget</d:tags>
<d:license class="ld ld-spin" style="transform-origin: 50px 50px 0px; animation-duration: 1s; animation-delay: -0.473684s;">cc-by</d:license>
<d:slug class="ld ld-spin" style="transform-origin: 50px 50px 0px; animation-duration: 1s; animation-delay: -0.421053s;">umk2mp</d:slug>
</metadata></g></g><style type="text/css" class="ld ld-spin" style="transform-origin: 50px 50px 0px; animation-duration: 1s; animation-delay: -0.368421s;">path,ellipse,circle,rect,polygon,polyline,line { stroke-width: 0; }@keyframes ld-spin {
  0% {
    -webkit-transform: rotate(0);
    transform: rotate(0);
    animation-timing-function: cubic-bezier(0.55, 0.055, 0.675, 0.19);
  }
  50% {
    -webkit-transform: rotate(180deg);
    transform: rotate(180deg);
    animation-timing-function: cubic-bezier(0.215, 0.61, 0.355, 1);
  }
  100% {
    -webkit-transform: rotate(360deg);
    transform: rotate(360deg);
  }
}
@-webkit-keyframes ld-spin {
  0% {
    -webkit-transform: rotate(0);
    transform: rotate(0);
    animation-timing-function: cubic-bezier(0.55, 0.055, 0.675, 0.19);
  }
  50% {
    -webkit-transform: rotate(180deg);
    transform: rotate(180deg);
    animation-timing-function: cubic-bezier(0.215, 0.61, 0.355, 1);
  }
  100% {
    -webkit-transform: rotate(360deg);
    transform: rotate(360deg);
  }
}
.ld.ld-spin {
  -webkit-animation: ld-spin 1s infinite;
  animation: ld-spin 1s infinite;
}
</style></svg></svg>