<svg class="ldi-9mcb7s" width="200px"  height="200px"  xmlns="http://www.w3.org/2000/svg" xmlns:xlink="http://www.w3.org/1999/xlink" viewBox="0 0 100 100" preserveAspectRatio="xMidYMid" style="background: none;"><!--?xml version="1.0" encoding="utf-8"?--><!--Generator: Adobe Illustrator 21.0.0, SVG Export Plug-In . SVG Version: 6.00 Build 0)--><svg version="1.1" id="Layer_1" xmlns="http://www.w3.org/2000/svg" xmlns:xlink="http://www.w3.org/1999/xlink" x="0px" y="0px" viewBox="0 0 100 100" style="transform-origin: 50px 50px 0px;" xml:space="preserve"><g style="transform-origin: 50px 50px 0px; transform: scale(0.6);"><g style="transform-origin: 50px 50px 0px;"><style type="text/css" class="ld ld-heartbeat" style="transform-origin: 50px 50px 0px; animation-duration: 1s; animation-delay: -1s;">.st0{fill:#333}.st1,.st2{stroke-width:3.5;stroke-miterlimit:10}.st1{fill:url(#SVGID_1_);stroke:#333}.st2{opacity:.5;stroke:#000}.st3{fill:#666766;stroke:#333}.st3,.st4,.st5{stroke-width:3.5;stroke-miterlimit:10}.st4{opacity:.5;stroke-linejoin:round;stroke:#000}.st5{fill:none;stroke:#333;stroke-linecap:round}.st6{opacity:.5}.st7,.st8{stroke:#333;stroke-width:3.5}.st7{stroke-miterlimit:10;fill:none}.st8{fill:#849b87}.st10,.st11,.st8,.st9{stroke-miterlimit:10}.st9{opacity:.2;stroke-width:3.5;stroke-linejoin:round;stroke:#000}.st10,.st11{stroke:#333}.st10{stroke-width:3.5;fill:#e15c64}.st11{fill:#fff}.st11,.st12,.st13{stroke-width:3.5}.st12{opacity:.2;stroke-linecap:round;stroke-linejoin:round;stroke-miterlimit:10;stroke:#000}.st13{fill:#acbd81;stroke:#333}.st13,.st14,.st15,.st16{stroke-miterlimit:10}.st14{fill:#e0e0e0;stroke:#333;stroke-width:5.6375}.st15,.st16{stroke-width:5.638;stroke-linejoin:round}.st15{fill:#f0d848;stroke:#333}.st16{opacity:.2;stroke:#000;stroke-linecap:round}.st17,.st18,.st19{fill:#f4e6c8;stroke:#333;stroke-width:3.5;stroke-miterlimit:10}.st18,.st19{stroke:#fff;stroke-linecap:round}.st19{stroke:#f47e5f}.st20{fill:#acbd81}.st21{fill:#e0e0e0;stroke:#333;stroke-width:3.5;stroke-miterlimit:10}.st22{fill:#b92025}.st23,.st24{fill:none;stroke:#333;stroke-width:9;stroke-linecap:round;stroke-miterlimit:10}.st24{stroke-width:6}.st25{fill:#a0c8d7}.st26{opacity:.2}.st27,.st28{stroke-width:3.5}.st27{opacity:.2;stroke:#000;stroke-miterlimit:10}.st28{fill-rule:evenodd;clip-rule:evenodd;fill:#ffdc6e}.st28,.st29,.st30{stroke:#333;stroke-miterlimit:10}.st29{stroke-linecap:round;fill:none;stroke-width:2.8104}.st30{fill:#fff;stroke-width:3.7002}.st31,.st32{fill-rule:evenodd;clip-rule:evenodd;stroke-width:3.5}.st31{fill:none;stroke-linecap:round;stroke-miterlimit:10;stroke:#fff}.st32{opacity:.2;stroke:#000;stroke-linejoin:round}.st32,.st33,.st34,.st35{stroke-miterlimit:10}.st33{fill:#849b87;stroke:#333;stroke-width:3.7002}.st34,.st35{stroke-width:3.7}.st34{fill:#849b87;stroke-linecap:round;stroke:#fff}.st35{opacity:.2;stroke:#000}.st36{fill:#e0e0e0}.st37{fill:#fff}.st38,.st39{fill:#acbd81;stroke:#333;stroke-width:3.5;stroke-linecap:round;stroke-linejoin:round;stroke-miterlimit:10}.st39{fill:none}.st40{fill:#f4e6c8}.st41{fill:#acbd81;stroke:#fff;stroke-width:3.5;stroke-linecap:round;stroke-linejoin:round;stroke-miterlimit:10}.st42{fill:#67503b}.st43{fill:#a0c8d7;stroke:#333}.st43,.st44,.st45,.st46,.st47,.st48,.st49{stroke-width:3.5;stroke-miterlimit:10}.st44{stroke-linecap:round;fill:#a0c8d7;stroke:#fff}.st45,.st46,.st47,.st48,.st49{fill:#f47e5f;stroke:#333}.st46,.st47,.st48,.st49{fill:none;stroke:#fff;stroke-linecap:round}.st47,.st48,.st49{fill:#e0e0e0;stroke:#333}.st48,.st49{fill:#fff}.st49{fill:#e0e0e0;stroke:#fff}.st50{fill:#fcdc4f}.st51{fill:#407cae}.st52{fill:none}.st53{fill:#fefefe}.st54{fill:none;stroke:#a0c8d7;stroke-width:3.5;stroke-miterlimit:10}.st55,.st56{stroke-linecap:round}.st55{stroke:#fff;stroke-width:2.5;stroke-miterlimit:10;fill:none}.st56{fill:#f4e6c8}.st56,.st57,.st58{stroke:#333;stroke-width:3.5;stroke-miterlimit:10}.st57{stroke-linecap:round;fill:#f47e5f}.st58{fill:#f7b26a}.st59{fill:#849b87}.st60{fill:#e15c64}.st61,.st62,.st63,.st64{fill:none;stroke:#fff;stroke-width:2.1185;stroke-miterlimit:10}.st62,.st63,.st64{stroke-width:2.3545}.st63,.st64{fill:#fff}.st64{fill:#f4e6c8;stroke:#333;stroke-width:5.6375}.st65{fill:#c33837;stroke:#333;stroke-width:5.638;stroke-linecap:round;stroke-linejoin:round}.st65,.st66,.st67,.st68{stroke-miterlimit:10}.st66{opacity:.2;stroke:#000;stroke-linejoin:round;stroke-width:5.638}.st67,.st68{stroke-width:3.5}.st67{fill:#f47e5f;stroke-linecap:round;stroke:#fff}.st68{stroke:#333}.st69{fill:#070404}.st70{fill:#c42026}.st71{fill:#010101}.st72{opacity:.4}.st73{fill:#666766}.st74,.st75,.st76,.st77{fill:none;stroke-miterlimit:10}.st74{stroke:#fff;stroke-linecap:round;stroke-width:3}.st75,.st76,.st77{stroke-width:3.5}.st75{stroke-linejoin:round;stroke:#333}.st76,.st77{stroke:#e0e0e0}.st77{stroke:#e15c64}.st78{fill:none;stroke:#77a4bd}.st78,.st79,.st80{stroke-width:3.5;stroke-miterlimit:10}.st79{stroke-linejoin:round;fill:none;stroke:#f4e6c8}.st80{fill:#acbd81;stroke:#fff;stroke-linecap:round}.st81{stroke:#333434;stroke-linejoin:round}.st81,.st82,.st83{fill:#77a4bd;stroke-width:3.5;stroke-miterlimit:10}.st82{stroke-linejoin:round;stroke:#fff}.st83{stroke:#e0e0e0}.st83,.st84,.st85,.st86{stroke-linejoin:round}.st84{fill:none;stroke-width:3.5;stroke-linecap:round;stroke-miterlimit:10;stroke:#e0e0e0}.st85,.st86{stroke:#333}.st85{stroke-width:3.5;stroke-miterlimit:10;fill:#e0e0e0}.st86{fill:#e15c64}.st86,.st87,.st88,.st89,.st90,.st91{stroke-width:3.5;stroke-miterlimit:10}.st87{fill:#f7b26a;stroke-linecap:round;stroke:#fff}.st88,.st89,.st90,.st91{stroke:#000}.st89,.st90,.st91{fill-rule:evenodd;clip-rule:evenodd;fill:#fff;stroke:#333}.st90,.st91{fill:#e0e0e0}.st91{fill:none;stroke:#fff;stroke-linejoin:round}.st91,.st92,.st93{stroke-linecap:round}.st92{stroke-width:3.5;stroke-linejoin:round;stroke-miterlimit:10;fill:none;stroke:#fff}.st93{fill:#67503b;stroke:#333}.st93,.st94,.st95,.st96{stroke-width:3.5;stroke-miterlimit:10}.st94{stroke-linecap:round;fill:#67503b;stroke:#fff}.st95,.st96{fill:#333;stroke:#333}.st96{fill:url(#SVGID_2_)}.st97{fill:#f47e5f}.st98,.st99{stroke-miterlimit:10}.st98{opacity:.2;stroke-width:3.5;stroke-linecap:round;stroke:#000}.st99{fill:#fff;stroke:#333}.st100{opacity:.3}.st101{stroke:#333;stroke-miterlimit:10}.st102{fill:#e6e6e6}</style><g style="transform-origin: 50px 50px 0px;"><g class="ld ld-heartbeat" style="transform-origin: 50px 50px 0px; animation-duration: 1s; animation-delay: -0.928571s;"><path class="st58" d="M36.993,88.874C22.109,88.874,10,76.766,10,61.882c0-13.934,10.866-25.75,24.738-26.9 c1.998-0.178,3.758,1.322,3.924,3.324c0.166,2.001-1.322,3.758-3.323,3.924c-10.13,0.84-18.066,9.472-18.066,19.652 c0,10.874,8.846,19.719,19.72,19.719c10.873,0,19.719-8.846,19.719-19.719c0-2.008,1.628-3.636,3.636-3.636 s3.636,1.628,3.636,3.636C63.985,76.766,51.876,88.874,36.993,88.874z" fill="rgb(247, 178, 106)" stroke="rgb(51, 51, 51)" style="fill: rgb(247, 178, 106); stroke: rgb(51, 51, 51);"></path></g></g><g class="ld ld-heartbeat" style="transform-origin: 50px 50px 0px; animation-duration: 1s; animation-delay: -0.857143s;"><path class="st58" d="M86.364,81.602c-0.007,0-0.015,0-0.022,0l-8.263,0.048l-5.272-20.671c-0.023-0.091-0.065-0.172-0.095-0.26 c-0.038-0.111-0.072-0.223-0.12-0.329c-0.057-0.127-0.127-0.244-0.197-0.362c-0.048-0.08-0.092-0.162-0.146-0.238 c-0.088-0.125-0.187-0.238-0.289-0.35c-0.053-0.058-0.103-0.119-0.16-0.173c-0.113-0.109-0.236-0.205-0.361-0.298 c-0.061-0.045-0.119-0.092-0.183-0.134c-0.134-0.087-0.275-0.159-0.419-0.227c-0.067-0.032-0.131-0.066-0.2-0.094 c-0.157-0.063-0.319-0.109-0.485-0.15c-0.063-0.016-0.124-0.035-0.188-0.047c-0.181-0.035-0.366-0.049-0.554-0.056 c-0.043-0.001-0.084-0.013-0.127-0.013H69.16c-0.021,0.001-0.041-0.001-0.061,0H41.651l-0.933-6.24h21.954 c2.008,0,3.636-1.628,3.636-3.636s-1.628-3.636-3.636-3.636H39.631l-3.58-23.947c-0.297-1.986-2.154-3.359-4.134-3.058 c-1.986,0.297-3.356,2.148-3.059,4.134l6.063,40.557c0.005,0.036,0.019,0.069,0.026,0.105c0.018,0.098,0.045,0.192,0.07,0.288 c0.035,0.13,0.071,0.258,0.118,0.381c0.035,0.089,0.075,0.173,0.116,0.259c0.058,0.121,0.12,0.239,0.191,0.351 c0.049,0.078,0.101,0.153,0.155,0.227c0.079,0.107,0.163,0.209,0.253,0.306c0.063,0.068,0.126,0.134,0.194,0.197 c0.095,0.089,0.196,0.169,0.3,0.247c0.076,0.057,0.151,0.114,0.231,0.165c0.111,0.07,0.227,0.129,0.345,0.187 c0.084,0.041,0.165,0.086,0.252,0.121c0.137,0.055,0.28,0.094,0.424,0.132c0.075,0.02,0.147,0.047,0.225,0.062 c0.225,0.044,0.456,0.07,0.692,0.07c0.001,0,0.002,0,0.003,0c0.001,0,0.001,0,0.002,0H66.46l5.275,20.683 c0.031,0.123,0.08,0.236,0.123,0.352c0.025,0.069,0.043,0.141,0.072,0.208c0.089,0.204,0.194,0.396,0.316,0.576 c0.018,0.027,0.041,0.049,0.06,0.075c0.109,0.152,0.226,0.296,0.356,0.428c0.05,0.051,0.105,0.094,0.157,0.142 c0.107,0.098,0.217,0.191,0.335,0.275c0.068,0.049,0.14,0.092,0.211,0.137c0.115,0.07,0.232,0.134,0.354,0.191 c0.078,0.037,0.155,0.072,0.235,0.103c0.137,0.053,0.277,0.094,0.42,0.13c0.07,0.018,0.138,0.04,0.21,0.053 c0.22,0.042,0.444,0.069,0.672,0.069c0.005,0,0.01-0.001,0.014-0.001c0.003,0,0.006,0,0.01,0l11.105-0.065 c2.008-0.012,3.627-1.65,3.615-3.658C89.988,83.216,88.362,81.602,86.364,81.602z" fill="rgb(247, 178, 106)" stroke="rgb(51, 51, 51)" style="fill: rgb(247, 178, 106); stroke: rgb(51, 51, 51);"></path></g><g class="ld ld-heartbeat" style="transform-origin: 50px 50px 0px; animation-duration: 1s; animation-delay: -0.785714s;"><path class="st58" d="M33.174,11.061c-5.884,0-10.671,4.787-10.671,10.671c0,5.883,4.787,10.67,10.671,10.67 s10.67-4.787,10.67-10.67C43.844,15.848,39.058,11.061,33.174,11.061z" fill="rgb(247, 178, 106)" stroke="rgb(51, 51, 51)" style="fill: rgb(247, 178, 106); stroke: rgb(51, 51, 51);"></path></g><metadata xmlns:d="https://loading.io/stock/" class="ld ld-heartbeat" style="transform-origin: 50px 50px 0px; animation-duration: 1s; animation-delay: -0.714286s;">
<d:name class="ld ld-heartbeat" style="transform-origin: 50px 50px 0px; animation-duration: 1s; animation-delay: -0.642857s;">handicapped</d:name>
<d:tags class="ld ld-heartbeat" style="transform-origin: 50px 50px 0px; animation-duration: 1s; animation-delay: -0.571429s;">handicapped,accessibility,usability,a11y,wheelchair,sick,illness,weak,social welfare</d:tags>
<d:license class="ld ld-heartbeat" style="transform-origin: 50px 50px 0px; animation-duration: 1s; animation-delay: -0.5s;">cc-by</d:license>
<d:slug class="ld ld-heartbeat" style="transform-origin: 50px 50px 0px; animation-duration: 1s; animation-delay: -0.428571s;">9mcb7s</d:slug>
</metadata></g></g><style type="text/css" class="ld ld-heartbeat" style="transform-origin: 50px 50px 0px; animation-duration: 1s; animation-delay: -0.357143s;">path,ellipse,circle,rect,polygon,polyline,line { stroke-width: 0; }@keyframes ld-heartbeat {
  0% {
    -webkit-transform: scale(1.05);
    transform: scale(1.05);
  }
  5% {
    -webkit-transform: scale(1.25);
    transform: scale(1.25);
  }
  39% {
    -webkit-transform: scale(0.9);
    transform: scale(0.9);
  }
  45% {
    -webkit-transform: scale(1.15);
    transform: scale(1.15);
  }
  60% {
    -webkit-transform: scale(1.05);
    transform: scale(1.05);
  }
  100% {
    -webkit-transform: scale(1);
    transform: scale(1);
  }
}
@-webkit-keyframes ld-heartbeat {
  0% {
    -webkit-transform: scale(1.05);
    transform: scale(1.05);
  }
  5% {
    -webkit-transform: scale(1.25);
    transform: scale(1.25);
  }
  39% {
    -webkit-transform: scale(0.9);
    transform: scale(0.9);
  }
  45% {
    -webkit-transform: scale(1.15);
    transform: scale(1.15);
  }
  60% {
    -webkit-transform: scale(1.05);
    transform: scale(1.05);
  }
  100% {
    -webkit-transform: scale(1);
    transform: scale(1);
  }
}
.ld.ld-heartbeat {
  -webkit-animation: ld-heartbeat 0.8s infinite cubic-bezier(0.215, 0.61, 0.355, 1);
  animation: ld-heartbeat 0.8s infinite cubic-bezier(0.215, 0.61, 0.355, 1);
}
</style></svg></svg>