<svg class="ldi-vw2uhn" width="200px"  height="200px"  xmlns="http://www.w3.org/2000/svg" xmlns:xlink="http://www.w3.org/1999/xlink" viewBox="0 0 100 100" preserveAspectRatio="xMidYMid" style="background: none;"><!--?xml version="1.0" encoding="utf-8"?--><!--Generator: Adobe Illustrator 21.0.0, SVG Export Plug-In . SVG Version: 6.00 Build 0)--><svg version="1.1" id="Layer_1" xmlns="http://www.w3.org/2000/svg" xmlns:xlink="http://www.w3.org/1999/xlink" x="0px" y="0px" viewBox="0 0 100 100" style="transform-origin: 50px 50px 0px;" xml:space="preserve"><g style="transform-origin: 50px 50px 0px; transform: scale(0.6);"><g style="transform-origin: 50px 50px 0px; animation-duration: 1s; animation-delay: -1s;" class="ld ld-breath"><style type="text/css" class="" style="transform-origin: 50px 50px 0px; animation-duration: 1s; animation-delay: -1s;">.st0{fill:#333}.st1,.st2{stroke-width:3.5;stroke-miterlimit:10}.st1{fill:url(#SVGID_1_);stroke:#333}.st2{opacity:.5;stroke:#000}.st3{fill:#666766;stroke:#333}.st3,.st4,.st5{stroke-width:3.5;stroke-miterlimit:10}.st4{opacity:.5;stroke-linejoin:round;stroke:#000}.st5{fill:none;stroke:#333;stroke-linecap:round}.st6{opacity:.5}.st7,.st8{stroke:#333;stroke-width:3.5}.st7{stroke-miterlimit:10;fill:none}.st8{fill:#849b87}.st10,.st11,.st8,.st9{stroke-miterlimit:10}.st9{opacity:.2;stroke-width:3.5;stroke-linejoin:round;stroke:#000}.st10,.st11{stroke:#333}.st10{stroke-width:3.5;fill:#e15c64}.st11{fill:#fff}.st11,.st12,.st13{stroke-width:3.5}.st12{opacity:.2;stroke-linecap:round;stroke-linejoin:round;stroke-miterlimit:10;stroke:#000}.st13{fill:#acbd81;stroke:#333}.st13,.st14,.st15,.st16{stroke-miterlimit:10}.st14{fill:#e0e0e0;stroke:#333;stroke-width:5.6375}.st15,.st16{stroke-width:5.638;stroke-linejoin:round}.st15{fill:#f0d848;stroke:#333}.st16{opacity:.2;stroke:#000;stroke-linecap:round}.st17,.st18,.st19{fill:#f4e6c8;stroke:#333;stroke-width:3.5;stroke-miterlimit:10}.st18,.st19{stroke:#fff;stroke-linecap:round}.st19{stroke:#f47e5f}.st20{fill:#acbd81}.st21{fill:#e0e0e0;stroke:#333;stroke-width:3.5;stroke-miterlimit:10}.st22{fill:#b92025}.st23,.st24{fill:none;stroke:#333;stroke-width:9;stroke-linecap:round;stroke-miterlimit:10}.st24{stroke-width:6}.st25{fill:#a0c8d7}.st26{opacity:.2}.st27,.st28{stroke-width:3.5}.st27{opacity:.2;stroke:#000;stroke-miterlimit:10}.st28{fill-rule:evenodd;clip-rule:evenodd;fill:#ffdc6e}.st28,.st29,.st30{stroke:#333;stroke-miterlimit:10}.st29{stroke-linecap:round;fill:none;stroke-width:2.8104}.st30{fill:#fff;stroke-width:3.7002}.st31,.st32{fill-rule:evenodd;clip-rule:evenodd;stroke-width:3.5}.st31{fill:none;stroke-linecap:round;stroke-miterlimit:10;stroke:#fff}.st32{opacity:.2;stroke:#000;stroke-linejoin:round}.st32,.st33,.st34,.st35{stroke-miterlimit:10}.st33{fill:#849b87;stroke:#333;stroke-width:3.7002}.st34,.st35{stroke-width:3.7}.st34{fill:#849b87;stroke-linecap:round;stroke:#fff}.st35{opacity:.2;stroke:#000}.st36{fill:#e0e0e0}.st37{fill:#fff}.st38,.st39{fill:#acbd81;stroke:#333;stroke-width:3.5;stroke-linecap:round;stroke-linejoin:round;stroke-miterlimit:10}.st39{fill:none}.st40{fill:#f4e6c8}.st41{fill:#acbd81;stroke:#fff;stroke-width:3.5;stroke-linecap:round;stroke-linejoin:round;stroke-miterlimit:10}.st42{fill:#67503b}.st43{fill:#a0c8d7;stroke:#333}.st43,.st44,.st45,.st46,.st47,.st48,.st49{stroke-width:3.5;stroke-miterlimit:10}.st44{stroke-linecap:round;fill:#a0c8d7;stroke:#fff}.st45,.st46,.st47,.st48,.st49{fill:#f47e5f;stroke:#333}.st46,.st47,.st48,.st49{fill:none;stroke:#fff;stroke-linecap:round}.st47,.st48,.st49{fill:#e0e0e0;stroke:#333}.st48,.st49{fill:#fff}.st49{fill:#e0e0e0;stroke:#fff}.st50{fill:#fcdc4f}.st51{fill:#407cae}.st52{fill:none}.st53{fill:#fefefe}.st54{fill:none;stroke:#a0c8d7;stroke-width:3.5;stroke-miterlimit:10}.st55,.st56{stroke-linecap:round}.st55{stroke:#fff;stroke-width:2.5;stroke-miterlimit:10;fill:none}.st56{fill:#f4e6c8}.st56,.st57,.st58{stroke:#333;stroke-width:3.5;stroke-miterlimit:10}.st57{stroke-linecap:round;fill:#f47e5f}.st58{fill:#f7b26a}.st59{fill:#849b87}.st60{fill:#e15c64}.st61,.st62,.st63,.st64{fill:none;stroke:#fff;stroke-width:2.1185;stroke-miterlimit:10}.st62,.st63,.st64{stroke-width:2.3545}.st63,.st64{fill:#fff}.st64{fill:#f4e6c8;stroke:#333;stroke-width:5.6375}.st65{fill:#c33837;stroke:#333;stroke-width:5.638;stroke-linecap:round;stroke-linejoin:round}.st65,.st66,.st67,.st68{stroke-miterlimit:10}.st66{opacity:.2;stroke:#000;stroke-linejoin:round;stroke-width:5.638}.st67,.st68{stroke-width:3.5}.st67{fill:#f47e5f;stroke-linecap:round;stroke:#fff}.st68{stroke:#333}.st69{fill:#070404}.st70{fill:#c42026}.st71{fill:#010101}.st72{opacity:.4}.st73{fill:#666766}.st74,.st75,.st76,.st77{fill:none;stroke-miterlimit:10}.st74{stroke:#fff;stroke-linecap:round;stroke-width:3}.st75,.st76,.st77{stroke-width:3.5}.st75{stroke-linejoin:round;stroke:#333}.st76,.st77{stroke:#e0e0e0}.st77{stroke:#e15c64}.st78{fill:none;stroke:#77a4bd}.st78,.st79,.st80{stroke-width:3.5;stroke-miterlimit:10}.st79{stroke-linejoin:round;fill:none;stroke:#f4e6c8}.st80{fill:#acbd81;stroke:#fff;stroke-linecap:round}.st81{stroke:#333434;stroke-linejoin:round}.st81,.st82,.st83{fill:#77a4bd;stroke-width:3.5;stroke-miterlimit:10}.st82{stroke-linejoin:round;stroke:#fff}.st83{stroke:#e0e0e0}.st83,.st84,.st85,.st86{stroke-linejoin:round}.st84{fill:none;stroke-width:3.5;stroke-linecap:round;stroke-miterlimit:10;stroke:#e0e0e0}.st85,.st86{stroke:#333}.st85{stroke-width:3.5;stroke-miterlimit:10;fill:#e0e0e0}.st86{fill:#e15c64}.st86,.st87,.st88,.st89,.st90,.st91{stroke-width:3.5;stroke-miterlimit:10}.st87{fill:#f7b26a;stroke-linecap:round;stroke:#fff}.st88,.st89,.st90,.st91{stroke:#000}.st89,.st90,.st91{fill-rule:evenodd;clip-rule:evenodd;fill:#fff;stroke:#333}.st90,.st91{fill:#e0e0e0}.st91{fill:none;stroke:#fff;stroke-linejoin:round}.st91,.st92,.st93{stroke-linecap:round}.st92{stroke-width:3.5;stroke-linejoin:round;stroke-miterlimit:10;fill:none;stroke:#fff}.st93{fill:#67503b;stroke:#333}.st93,.st94,.st95,.st96{stroke-width:3.5;stroke-miterlimit:10}.st94{stroke-linecap:round;fill:#67503b;stroke:#fff}.st95,.st96{fill:#333;stroke:#333}.st96{fill:url(#SVGID_2_)}.st97{fill:#f47e5f}.st98,.st99{stroke-miterlimit:10}.st98{opacity:.2;stroke-width:3.5;stroke-linecap:round;stroke:#000}.st99{fill:#fff;stroke:#333}.st100{opacity:.3}.st101{stroke:#333;stroke-miterlimit:10}.st102{fill:#e6e6e6}</style><g style="transform-origin: 50px 50px 0px;"><g class="" style="transform-origin: 50px 50px 0px; animation-duration: 1s; animation-delay: -0.975s;"><path class="st20" d="M54.663,82.657c-3.398,0-6.163-2.765-6.163-6.163c0-1.768,0.764-3.423,2.039-4.573 c-0.946-1.352-1.582-2.895-1.863-4.524c-3.845-0.012-7.558-1.317-10.574-3.701c-2.477,1.315-5.229,2.006-8.025,2.006 c-9.476,0-17.185-7.709-17.185-17.185c0-1.467,0.186-2.921,0.553-4.333C10.895,41.102,9.5,37.253,9.5,33.256 c0-9.477,7.709-17.186,17.185-17.186c1.167,0,2.355,0.129,3.542,0.383c3.25-3.487,7.778-5.47,12.567-5.47 c5.378,0,10.428,2.521,13.674,6.783c3.577,0.022,6.961,1.121,9.854,3.191c2.212-0.993,4.56-1.496,6.994-1.496 c9.476,0,17.185,7.709,17.185,17.185c0,4.258-1.551,8.296-4.383,11.453c0.097,0.738,0.144,1.435,0.144,2.112 c0,8.939-6.672,16.203-15.418,17.081c-0.812,5.036-4.919,8.899-10.019,9.38C60.729,79.988,58.001,82.657,54.663,82.657z" fill="rgb(172, 189, 129)" style="fill: rgb(172, 189, 129);"></path></g><g class="" style="transform-origin: 50px 50px 0px; animation-duration: 1s; animation-delay: -0.95s;"><path class="st0" d="M42.793,12.484c5.369,0,10.103,2.701,12.931,6.815c0.212-0.008,0.42-0.032,0.634-0.032 c3.705,0,7.104,1.292,9.788,3.44c2.15-1.108,4.583-1.745,7.168-1.745C81.978,20.962,89,27.984,89,36.647 c0,4.267-1.709,8.13-4.473,10.958c0.143,0.85,0.234,1.717,0.234,2.607c0,8.526-6.807,15.448-15.281,15.664 c-0.213,5.196-4.481,9.346-9.73,9.346c-0.207,0-0.409-0.018-0.612-0.031c0.12,0.414,0.188,0.85,0.188,1.303 c0,2.575-2.088,4.663-4.663,4.663c-2.575,0-4.663-2.088-4.663-4.663c0-1.891,1.128-3.516,2.746-4.248 c-1.619-1.674-2.637-3.925-2.728-6.415c-0.426,0.035-0.854,0.065-1.29,0.065c-4.026,0-7.685-1.53-10.462-4.022 c-2.386,1.466-5.184,2.327-8.19,2.327c-8.662,0-15.685-7.022-15.685-15.685c0-1.638,0.253-3.217,0.719-4.702 C12.565,41.026,11,37.328,11,33.255c0-8.662,7.022-15.685,15.685-15.685c1.41,0,2.769,0.203,4.068,0.552 C33.63,14.678,37.954,12.484,42.793,12.484 M42.793,9.484c-4.926,0-9.597,1.928-13.078,5.345c-1.016-0.171-2.03-0.258-3.03-0.258 C16.382,14.571,8,22.953,8,33.255c0,4.095,1.345,8.044,3.816,11.289c-0.283,1.301-0.425,2.631-0.425,3.972 c0,10.303,8.382,18.685,18.685,18.685c2.721,0,5.403-0.601,7.866-1.751c2.804,1.991,6.094,3.17,9.523,3.403 c0.277,1.01,0.676,1.98,1.191,2.89C47.605,73.073,47,74.739,47,76.495c0,4.225,3.438,7.663,7.663,7.663 c3.713,0,6.817-2.654,7.516-6.164c4.841-0.928,8.706-4.582,9.915-9.35c8.965-1.428,15.667-9.088,15.667-18.431 c0-0.53-0.026-1.07-0.079-1.628C90.476,45.232,92,41.047,92,36.647c0-10.303-8.382-18.685-18.685-18.685 c-2.363,0-4.652,0.436-6.828,1.298c-2.77-1.788-5.986-2.822-9.28-2.974C53.671,11.999,48.396,9.484,42.793,9.484L42.793,9.484z" fill="#ffffff" style="fill: rgb(255, 255, 255);"></path></g></g><g style="transform-origin: 50px 50px 0px;"><g class="" style="transform-origin: 50px 50px 0px; animation-duration: 1s; animation-delay: -0.925s;"><circle class="st20" cx="40.25" cy="84.125" r="4.891" fill="rgb(172, 189, 129)" style="fill: rgb(172, 189, 129);"></circle></g><g class="" style="transform-origin: 50px 50px 0px; animation-duration: 1s; animation-delay: -0.9s;"><path class="st0" d="M40.25,80.734c1.873,0,3.391,1.518,3.391,3.391c0,1.873-1.518,3.391-3.391,3.391s-3.391-1.518-3.391-3.391 C36.859,82.252,38.377,80.734,40.25,80.734 M40.25,77.734c-3.524,0-6.391,2.867-6.391,6.391s2.867,6.391,6.391,6.391 s6.391-2.867,6.391-6.391S43.774,77.734,40.25,77.734L40.25,77.734z" fill="#ffffff" style="fill: rgb(255, 255, 255);"></path></g></g><g class="" style="transform-origin: 50px 50px 0px; animation-duration: 1s; animation-delay: -0.875s;"><circle class="st20" cx="26.685" cy="33.255" r="15.685" fill="rgb(172, 189, 129)" style="fill: rgb(172, 189, 129);"></circle></g><g class="" style="transform-origin: 50px 50px 0px; animation-duration: 1s; animation-delay: -0.85s;"><circle class="st20" cx="42.793" cy="28.168" r="15.685" fill="rgb(172, 189, 129)" style="fill: rgb(172, 189, 129);"></circle></g><g class="" style="transform-origin: 50px 50px 0px; animation-duration: 1s; animation-delay: -0.825s;"><circle class="st20" cx="56.359" cy="34.951" r="15.685" fill="rgb(172, 189, 129)" style="fill: rgb(172, 189, 129);"></circle></g><g class="" style="transform-origin: 50px 50px 0px; animation-duration: 1s; animation-delay: -0.8s;"><circle class="st20" cx="73.315" cy="36.647" r="15.685" fill="rgb(172, 189, 129)" style="fill: rgb(172, 189, 129);"></circle></g><g class="" style="transform-origin: 50px 50px 0px; animation-duration: 1s; animation-delay: -0.775s;"><circle class="st20" cx="30.076" cy="48.516" r="15.685" fill="rgb(172, 189, 129)" style="fill: rgb(172, 189, 129);"></circle></g><g class="" style="transform-origin: 50px 50px 0px; animation-duration: 1s; animation-delay: -0.75s;"><circle class="st20" cx="48.728" cy="50.212" r="15.685" fill="rgb(172, 189, 129)" style="fill: rgb(172, 189, 129);"></circle></g><g class="" style="transform-origin: 50px 50px 0px; animation-duration: 1s; animation-delay: -0.725s;"><circle class="st20" cx="69.076" cy="50.212" r="15.685" fill="rgb(172, 189, 129)" style="fill: rgb(172, 189, 129);"></circle></g><g class="" style="transform-origin: 50px 50px 0px; animation-duration: 1s; animation-delay: -0.7s;"><circle class="st20" cx="59.75" cy="65.473" r="9.75" fill="rgb(172, 189, 129)" style="fill: rgb(172, 189, 129);"></circle></g><g class="" style="transform-origin: 50px 50px 0px; animation-duration: 1s; animation-delay: -0.675s;"><circle class="st20" cx="54.663" cy="76.495" r="4.663" fill="rgb(172, 189, 129)" style="fill: rgb(172, 189, 129);"></circle></g><g class="" style="transform-origin: 50px 50px 0px; animation-duration: 1s; animation-delay: -0.65s;"><circle class="st20" cx="40.25" cy="84.125" r="3.391" fill="rgb(172, 189, 129)" style="fill: rgb(172, 189, 129);"></circle></g><g style="transform-origin: 50px 50px 0px;"><g style="transform-origin: 50px 50px 0px;"><g class="" style="transform-origin: 50px 50px 0px; animation-duration: 1s; animation-delay: -0.625s;"><path class="st7" d="M29.529,50.088c1.026-5.557,4.271-10.673,8.861-13.969c2.884-2.07,6.278-3.408,9.79-3.917" stroke="#ffffff" style="stroke: rgb(255, 255, 255);"></path></g><g style="transform-origin: 50px 50px 0px;"><g class="" style="transform-origin: 50px 50px 0px; animation-duration: 1s; animation-delay: -0.6s;"><polygon class="st0" points="47.023,36.755 54.458,32.19 46.787,28.032 			" fill="#ffffff" style="fill: rgb(255, 255, 255);"></polygon></g></g></g></g><g class="" style="transform-origin: 50px 50px 0px; animation-duration: 1s; animation-delay: -0.575s;"><line class="st7" x1="42" y1="43" x2="49" y2="51" stroke="#ffffff" style="stroke: rgb(255, 255, 255);"></line></g><g class="" style="transform-origin: 50px 50px 0px; animation-duration: 1s; animation-delay: -0.55s;"><line class="st7" x1="40" y1="51" x2="50" y2="42" stroke="#ffffff" style="stroke: rgb(255, 255, 255);"></line></g><g class="" style="transform-origin: 50px 50px 0px; animation-duration: 1s; animation-delay: -0.525s;"><circle class="st7" cx="63" cy="34" r="5" stroke="#ffffff" style="stroke: rgb(255, 255, 255);"></circle></g><g style="transform-origin: 50px 50px 0px;"><g style="transform-origin: 50px 50px 0px;"><g class="" style="transform-origin: 50px 50px 0px; animation-duration: 1s; animation-delay: -0.5s;"><path class="st7" d="M59.427,56.974c3.929-1.636,7.248-4.471,10.145-7.589c0.967-1.041,1.907-2.146,2.722-3.321" stroke="#ffffff" style="stroke: rgb(255, 255, 255);"></path></g><g style="transform-origin: 50px 50px 0px;"><g class="" style="transform-origin: 50px 50px 0px; animation-duration: 1s; animation-delay: -0.475s;"><polygon class="st0" points="75.509,48.989 74.791,40.294 67.619,45.262 			" fill="#ffffff" style="fill: rgb(255, 255, 255);"></polygon></g></g></g></g><g class="" style="transform-origin: 50px 50px 0px; animation-duration: 1s; animation-delay: -0.45s;"><polygon class="st75" points="24,28 24,39 32,32 " stroke="#ffffff" style="stroke: rgb(255, 255, 255);"></polygon></g><metadata xmlns:d="https://loading.io/stock/" class="" style="transform-origin: 50px 50px 0px; animation-duration: 1s; animation-delay: -0.425s;">
<d:name class="" style="transform-origin: 50px 50px 0px; animation-duration: 1s; animation-delay: -0.4s;">planner</d:name>
<d:tags class="" style="transform-origin: 50px 50px 0px; animation-duration: 1s; animation-delay: -0.375s;">planner,blueprint,strategy,tactics,idea,arrangement,manager,organizer,planning,plot,decision</d:tags>
<d:license class="" style="transform-origin: 50px 50px 0px; animation-duration: 1s; animation-delay: -0.35s;">cc-by</d:license>
<d:slug class="" style="transform-origin: 50px 50px 0px; animation-duration: 1s; animation-delay: -0.325s;">vw2uhn</d:slug>
</metadata></g></g><style type="text/css" class="" style="transform-origin: 50px 50px 0px; animation-duration: 1s; animation-delay: -0.3s;">path,ellipse,circle,rect,polygon,polyline,line { stroke-width: 0; }@keyframes ld-breath {
  0% {
    -webkit-transform: scale(0.86);
    transform: scale(0.86);
  }
  50% {
    -webkit-transform: scale(1.06);
    transform: scale(1.06);
  }
  100% {
    -webkit-transform: scale(0.86);
    transform: scale(0.86);
  }
}
@-webkit-keyframes ld-breath {
  0% {
    -webkit-transform: scale(0.86);
    transform: scale(0.86);
  }
  50% {
    -webkit-transform: scale(1.06);
    transform: scale(1.06);
  }
  100% {
    -webkit-transform: scale(0.86);
    transform: scale(0.86);
  }
}
.ld.ld-breath {
  -webkit-animation: ld-breath 1s infinite;
  animation: ld-breath 1s infinite;
}
</style></svg></svg>