<svg class="ldi-xg85zv" width="200px"  height="200px"  xmlns="http://www.w3.org/2000/svg" xmlns:xlink="http://www.w3.org/1999/xlink" viewBox="0 0 100 100" preserveAspectRatio="xMidYMid" style="background: none;"><!--?xml version="1.0" encoding="utf-8"?--><!--Generator: Adobe Illustrator 21.0.0, SVG Export Plug-In . SVG Version: 6.00 Build 0)--><svg version="1.1" id="Layer_1" xmlns="http://www.w3.org/2000/svg" xmlns:xlink="http://www.w3.org/1999/xlink" x="0px" y="0px" viewBox="0 0 100 100" style="transform-origin: 50px 50px 0px;" xml:space="preserve"><g style="transform-origin: 50px 50px 0px; transform: scale(0.6);"><g style="transform-origin: 50px 50px 0px;"><style type="text/css" class="ld ldt-bounce-in" style="transform-origin: 50px 50px 0px; animation-duration: 1s; animation-delay: 0s;">.st0,.st1,.st2{fill:none;stroke:#333;stroke-width:3.5;stroke-linecap:round;stroke-miterlimit:10}.st1,.st2{fill:#f0af6b}.st2{fill:none;stroke-linejoin:round}.st3{fill:#e0e0e0;stroke:#333434}.st3,.st4,.st5,.st6{stroke-width:3.5;stroke-miterlimit:10}.st4{fill:#f3e4c7;stroke:#333}.st5,.st6{stroke-linejoin:round}.st5{stroke-linecap:round;fill:none;stroke:#fff}.st6{fill:#fff;stroke:#333}.st7{fill:#333}.st8{fill:#e0e0e0;stroke:#333}.st10,.st8,.st9{stroke-width:3.5;stroke-miterlimit:10}.st9{opacity:.2;stroke:#000}.st10{fill:none;stroke:#333}.st11{fill:#e0e0e0}.st12{fill:#666766}.st13{fill:#fff}.st14{fill:#c33837;stroke:#333}.st14,.st15,.st16,.st17{stroke-width:3.5;stroke-miterlimit:10}.st15{opacity:.2;stroke-linejoin:round;stroke:#000}.st16,.st17{fill:#f4e6c8;stroke:#333}.st17{stroke:#fff;stroke-linecap:round}.st18{fill:#849b87}.st19{opacity:.2}.st20{stroke-width:3.5;stroke-linejoin:round;stroke-miterlimit:10}.st20,.st21{fill:#e0e0e0;stroke:#333}.st21,.st22,.st23{stroke-width:3.5;stroke-linecap:round;stroke-linejoin:round}.st22{opacity:.2;stroke:#000}.st23{fill:#666;stroke:#333}.st24{fill:#d65a62}.st25{fill:#f0af6b;stroke:#333;stroke-linecap:round;stroke-linejoin:round}.st25,.st26,.st27{stroke-width:3.5;stroke-miterlimit:10}.st26{opacity:.2;stroke:#000;stroke-linecap:round;stroke-linejoin:round}.st27{fill:#a8b980}.st27,.st28,.st29{stroke:#333;stroke-linecap:round;stroke-linejoin:round}.st28{stroke-width:3.5;stroke-miterlimit:10;fill:#d65a62}.st29{fill:#ea7c60}.st29,.st30,.st31{stroke-width:3.5;stroke-miterlimit:10}.st30{stroke-linecap:round;fill:#e0e0e0;stroke:#fff}.st31{fill:#666766;stroke:#333}.st31,.st32,.st33,.st34{stroke-linejoin:round}.st32{stroke:#333;stroke-width:3.5;stroke-miterlimit:10;fill:none}.st33,.st34{fill:#67503b}.st33{stroke-width:3.5;stroke-miterlimit:10;stroke:#333}.st34{stroke:#fff;stroke-linecap:round}.st34,.st35,.st36{stroke-width:3.5;stroke-miterlimit:10}.st35{stroke:#333;stroke-linejoin:round;fill:#f47e5f}.st36{fill:#f4e6c8}.st36,.st37,.st38{stroke:#333;stroke-linejoin:round}.st37{stroke-width:3.5;stroke-miterlimit:10;fill:#f7b26a}.st38{fill:#333;stroke-linecap:round}.st38,.st39,.st40{stroke-width:3.5;stroke-miterlimit:10}.st39{stroke-linejoin:round;fill:none;stroke:#fff}.st40{fill:#feffff;stroke:#333}.st41{fill:#f0af6b}.st42{opacity:.3;fill:#f3e4c7}.st43,.st44{fill:#f0af6b;stroke-miterlimit:10}.st43{stroke-width:3.5;stroke:#333}.st44{stroke:#fff;stroke-linecap:round}.st44,.st45,.st46{stroke-width:3.5}.st45{stroke-miterlimit:10;fill:none;stroke:#fff}.st46{fill:#65503a;stroke:#333;stroke-linejoin:round}.st46,.st47,.st48{stroke-miterlimit:10}.st47{stroke:#333;stroke-width:3.5;fill:#ea7c60}.st48{fill:#a8b980}.st48,.st49,.st50,.st51{stroke:#333;stroke-width:3.5}.st49{fill:#76a0b7;stroke-miterlimit:10}.st50,.st51{stroke-linecap:round;stroke-linejoin:round}.st50{stroke-miterlimit:10;fill:#65503a}.st51{fill:#b93a38}.st51,.st52,.st53{stroke-miterlimit:10}.st52{fill:none;stroke-width:3.5;stroke-linecap:round;stroke:#fff}.st53{opacity:.2;stroke:#000}.st54,.st55{stroke:#333;stroke-linecap:round;stroke-linejoin:round}.st54{stroke-width:3.5;stroke-miterlimit:10;fill:#fff}.st55{fill:#666}.st55,.st56,.st57{stroke-width:3.5;stroke-miterlimit:10}.st56{stroke-linecap:round;stroke-linejoin:round;fill:#666;stroke:#fff}.st57{fill:#333;stroke:#333}.st58,.st59,.st60,.st61,.st62,.st63{stroke-width:3.5;stroke-linecap:round}.st58{stroke-miterlimit:10;fill:#f3e4c7;stroke:#fff}.st59,.st60,.st61,.st62,.st63{fill:none;stroke:#333;stroke-linejoin:round}.st60,.st61,.st62,.st63{stroke:#fff}.st61,.st62,.st63{fill:#f0af6b;stroke:#333}.st62,.st63{fill:#666;stroke:#fff}.st63{fill:#e0e0e0}.st64{fill:#fff;stroke:#333}.st64,.st65,.st66,.st67{stroke-width:3.5;stroke-miterlimit:10}.st65{fill:#666;stroke:#333}.st66,.st67{stroke:#000;stroke-linejoin:round}.st67{fill:#e15c64;stroke:#333}.st68{fill:#77a4bd}.st69{stroke-linejoin:round}.st69,.st70,.st71,.st72{fill:none;stroke:#fff;stroke-width:2;stroke-miterlimit:10}.st71,.st72{fill:#333;stroke-width:.3}.st72{fill:none;stroke:#333;stroke-width:2}.st73{fill:#acbd81;stroke:#333}.st73,.st74,.st75{stroke-width:3.5;stroke-miterlimit:10}.st74{fill:#849b87;stroke:#333}.st75{stroke:#b93a38}.st75,.st76{fill:none}.st77{fill:#f3e4c7}.st78{fill:#e15c64}.st79{fill:#f7b26a}.st80{fill:#f7faf8}.st81,.st82{fill:#f7b26a;stroke:#333;stroke-width:3.5;stroke-miterlimit:10}.st82{fill:#77a4bd}.st83{fill:#e15c64;stroke:#333}.st83,.st84,.st85{stroke-width:3.5;stroke-miterlimit:10}.st84{opacity:.2;stroke:#333}.st85{fill:#666}.st85,.st86,.st87{stroke:#333434}.st86{stroke-width:3.5;stroke-linejoin:round;stroke-miterlimit:10;fill:#65503a}.st87{fill:none;stroke-linecap:round}.st87,.st88,.st89{stroke-width:3.5;stroke-miterlimit:10}.st88{opacity:.2;stroke:#010101;fill:#010101}.st89{fill:#9ec4d2;stroke-linecap:round;stroke-linejoin:round}.st89,.st90,.st91{stroke:#333434}.st90{stroke-width:3.5;stroke-linecap:round;stroke-linejoin:round;stroke-miterlimit:10;fill:none}.st91{fill:#9ec4d2}.st91,.st92,.st93{stroke-width:3.5;stroke-miterlimit:10}.st92{fill:#77a0b7;stroke:#333434}.st93{stroke:#010101;stroke-linecap:round;stroke-linejoin:round}.st93,.st94{opacity:.2;fill:#010101}.st95{fill:#333434}.st96,.st97{fill:none;stroke:#fff;stroke-width:1.5;stroke-linecap:round;stroke-miterlimit:10}.st97{fill:#a8b980;stroke-width:3.5}</style><g style="transform-origin: 50px 50px 0px;"><g class="ld ldt-bounce-in" style="transform-origin: 50px 50px 0px; animation-duration: 1s; animation-delay: 0.0588235s;"><path class="st16" d="M37.667,13.235C21.624,13.235,11,20.666,11,36.203c0,6.451,1.837,11.501,5.128,15.205 c-0.77,3.656-1.815,7.041-2.921,8.995c-0.483,0.854,0.306,1.914,1.252,1.656c0.01-0.003,0.02-0.005,0.03-0.008 c2.674-0.755,6.002-2.772,9.27-5.332c3.924,1.639,8.619,2.452,13.907,2.452c16.043,0,26.667-7.431,26.667-22.968 C64.333,20.666,53.709,13.235,37.667,13.235z" fill="rgb(244, 230, 200)" stroke="rgb(51, 51, 51)" style="fill: rgb(244, 230, 200); stroke: rgb(51, 51, 51);"></path></g><g style="transform-origin: 50px 50px 0px;"><g class="ld ldt-bounce-in" style="transform-origin: 50px 50px 0px; animation-duration: 1s; animation-delay: 0.117647s;"><path class="st18" d="M26.891,45.828c0.079,0,0.197-0.079,0.236-0.197c2.403-6.382,5.87-15.72,8.234-22.142 c0.709-0.079,2.522-0.079,5.398-0.079c2.285,6.619,5.398,16.035,7.565,22.378l2.009,0.158c0,1.064,0,2.206-0.039,3.309 c-1.3,0-3.231,0-4.728,0c-2.049,0-4.531,0-6.343,0c0-1.103,0-2.246,0.039-3.349l1.93-0.118c0.079,0,0.158-0.079,0.118-0.197 c-0.197-0.591-0.551-1.852-0.788-2.443c-0.039-0.158-0.118-0.197-0.276-0.197l-7.289,0.079c-0.197,0.867-0.512,1.97-0.67,2.797 l2.167,0.118c0,1.064,0,2.206-0.039,3.309c-1.576,0-3.625,0-5.555,0c-1.3,0-2.679,0-3.861,0c0-1.103,0.039-2.246,0.079-3.309 L26.891,45.828z M36.662,30.739c-0.906,2.915-1.851,6.028-2.679,8.707c-0.039,0.157-0.039,0.236,0.079,0.236h5.516 c-0.827-2.6-1.773-5.831-2.718-8.943H36.662z" fill="rgb(132, 155, 135)" style="fill: rgb(132, 155, 135);"></path></g></g></g><g style="transform-origin: 50px 50px 0px;"><g class="ld ldt-bounce-in" style="transform-origin: 50px 50px 0px; animation-duration: 1s; animation-delay: 0.176471s;"><path class="st16" d="M62.333,37.902C78.376,37.902,89,45.333,89,60.87c0,6.451-1.837,11.501-5.128,15.205 c0.77,3.656,1.815,7.041,2.921,8.995c0.483,0.854-0.306,1.914-1.252,1.656c-0.01-0.003-0.02-0.005-0.03-0.008 c-2.674-0.755-6.002-2.772-9.27-5.332c-3.924,1.639-8.619,2.452-13.907,2.452c-16.043,0-26.667-7.431-26.667-22.968 C35.667,45.333,46.291,37.902,62.333,37.902z" fill="rgb(244, 230, 200)" stroke="rgb(51, 51, 51)" style="fill: rgb(244, 230, 200); stroke: rgb(51, 51, 51);"></path></g><g class="ld ldt-bounce-in" style="transform-origin: 50px 50px 0px; animation-duration: 1s; animation-delay: 0.235294s;"><path class="st18" d="M66.217,56.266c0.084-0.463,0.316-0.821,0.694-1.073c0.274-0.189,0.558-0.284,0.852-0.284 c0.126,0,0.252,0.011,0.379,0.032l0.757,0.189c0.4,0.084,0.694,0.305,0.884,0.663c0.126,0.232,0.189,0.463,0.189,0.694 c0,0.147-0.032,0.295-0.095,0.442c-0.042,0.126,0,0.21,0.126,0.252c1.851,0.652,3.314,1.662,4.387,3.03 C75.463,61.579,76,63.167,76,64.976c0,1.073-0.158,2.094-0.473,3.061c-0.316,0.968-0.799,1.889-1.452,2.761 c-0.652,0.873-1.557,1.652-2.714,2.335c-1.157,0.683-2.514,1.204-4.071,1.562c-0.189,0.063-0.379,0.095-0.568,0.095 c-0.336,0-0.673-0.074-1.01-0.221c-0.526-0.232-0.936-0.589-1.231-1.073l-0.158-0.221c-0.126-0.21-0.189-0.421-0.189-0.631 c0-0.168,0.042-0.336,0.126-0.505c0.189-0.399,0.494-0.642,0.915-0.726c2.293-0.505,4.008-1.362,5.144-2.572 c1.136-1.21,1.704-2.561,1.704-4.055c0-0.967-0.263-1.835-0.789-2.604c-0.526-0.768-1.283-1.373-2.272-1.815 c-0.147-0.063-0.252-0.021-0.316,0.126c-1.641,3.934-3.808,7.048-6.501,9.341c-0.106,0.106-0.137,0.232-0.095,0.379 c0.021,0.126,0.052,0.252,0.095,0.379c0.063,0.189,0.095,0.379,0.095,0.568c0,0.295-0.074,0.579-0.221,0.852 c-0.232,0.442-0.589,0.737-1.073,0.884l-0.757,0.221c-0.316,0.105-0.626,0.079-0.931-0.079c-0.305-0.158-0.5-0.394-0.584-0.71 c-0.042-0.105-0.106-0.137-0.189-0.095c-1.683,0.821-3.293,1.231-4.828,1.231c-1.262,0-2.299-0.394-3.108-1.183 c-0.81-0.789-1.215-1.951-1.215-3.487c0-1.977,0.721-3.934,2.162-5.87c1.441-1.936,3.266-3.45,5.475-4.544 c0.147-0.063,0.231-0.179,0.252-0.347c0.105-1.536,0.2-2.714,0.284-3.535c0-0.147-0.074-0.221-0.221-0.221h-0.789 c-0.863,0-2.135-0.042-3.819-0.126c-0.526-0.021-0.968-0.21-1.325-0.568c-0.4-0.399-0.6-0.873-0.6-1.42 c0-0.463,0.179-0.852,0.536-1.168c0.316-0.295,0.673-0.442,1.073-0.442c0.063,0,0.126,0.011,0.189,0.032 c1.599,0.126,2.956,0.189,4.071,0.189h0.978c0.168,0,0.252-0.074,0.252-0.221l0.189-1.483v-0.032 c0.063-0.526,0.273-0.967,0.631-1.325c0.358-0.336,0.778-0.505,1.262-0.505c0.021,0,0.042,0,0.063,0h0.473 c0.463,0.021,0.841,0.221,1.136,0.6c0.189,0.274,0.284,0.568,0.284,0.884c0,0.126-0.011,0.252-0.032,0.379 c-0.084,0.337-0.169,0.8-0.252,1.389c-0.021,0.063-0.011,0.116,0.032,0.158c0.042,0.042,0.095,0.063,0.158,0.063 c3.219-0.126,6.154-0.442,8.804-0.947c0.126-0.021,0.242-0.032,0.347-0.032c0.337,0,0.642,0.106,0.915,0.316 c0.379,0.295,0.568,0.684,0.568,1.168c0,0.526-0.168,0.989-0.505,1.389c-0.337,0.421-0.768,0.663-1.294,0.726 c-2.672,0.4-5.786,0.694-9.341,0.884c-0.147,0-0.232,0.074-0.252,0.221c-0.106,1.01-0.169,1.81-0.189,2.398 c0,0.063,0.021,0.116,0.063,0.158c0.042,0.042,0.095,0.053,0.158,0.032c1.578-0.336,3.093-0.505,4.544-0.505h0.347 C66.112,56.487,66.196,56.413,66.217,56.266z M54.604,69.552c0.863,0,1.862-0.305,2.998-0.915c0.147-0.063,0.2-0.179,0.158-0.347 c-0.337-2.04-0.547-4.018-0.631-5.933c0-0.042-0.021-0.074-0.063-0.095c-0.042-0.021-0.084-0.021-0.126,0 c-1.136,0.8-2.057,1.736-2.761,2.809c-0.705,1.073-1.057,2.051-1.057,2.935C53.12,69.037,53.615,69.552,54.604,69.552z M60.947,60.369c-0.147,0.042-0.221,0.147-0.221,0.316c0,1.725,0.105,3.356,0.316,4.892c0,0.042,0.026,0.074,0.079,0.095 c0.052,0.021,0.089,0.011,0.11-0.032c1.62-1.641,2.882-3.535,3.787-5.681c0.021-0.063,0.016-0.115-0.016-0.158 c-0.032-0.042-0.079-0.063-0.142-0.063C63.514,59.78,62.209,59.99,60.947,60.369z" fill="rgb(132, 155, 135)" style="fill: rgb(132, 155, 135);"></path></g></g><metadata xmlns:d="https://loading.io/stock/" class="ld ldt-bounce-in" style="transform-origin: 50px 50px 0px; animation-duration: 1s; animation-delay: 0.294118s;">
<d:name class="ld ldt-bounce-in" style="transform-origin: 50px 50px 0px; animation-duration: 1s; animation-delay: 0.352941s;">translator</d:name>
<d:tags class="ld ldt-bounce-in" style="transform-origin: 50px 50px 0px; animation-duration: 1s; animation-delay: 0.411765s;">translator,translation,linguist,language,foreigner,grammar,text,context</d:tags>
<d:license class="ld ldt-bounce-in" style="transform-origin: 50px 50px 0px; animation-duration: 1s; animation-delay: 0.470588s;">cc-by</d:license>
<d:slug class="ld ldt-bounce-in" style="transform-origin: 50px 50px 0px; animation-duration: 1s; animation-delay: 0.529412s;">xg85zv</d:slug>
</metadata></g></g><style type="text/css" class="ld ldt-bounce-in" style="transform-origin: 50px 50px 0px; animation-duration: 1s; animation-delay: 0.588235s;">path,ellipse,circle,rect,polygon,polyline,line { stroke-width: 0; }@keyframes ldt-bounce-in {
  0% {
    -webkit-transform: scale(0);
    transform: scale(0);
  }
  5% {
    -webkit-transform: scale(0.0846);
    transform: scale(0.0846);
  }
  6% {
    -webkit-transform: scale(0.191);
    transform: scale(0.191);
  }
  7% {
    -webkit-transform: scale(0.3255);
    transform: scale(0.3255);
  }
  8% {
    -webkit-transform: scale(0.4804);
    transform: scale(0.4804);
  }
  9% {
    -webkit-transform: scale(0.646);
    transform: scale(0.646);
  }
  10% {
    -webkit-transform: scale(0.8116);
    transform: scale(0.8116);
  }
  11% {
    -webkit-transform: scale(0.9665);
    transform: scale(0.9665);
  }
  12% {
    -webkit-transform: scale(1.1);
    transform: scale(1.1);
  }
  13% {
    -webkit-transform: scale(1.2069);
    transform: scale(1.2069);
  }
  14% {
    -webkit-transform: scale(1.2796);
    transform: scale(1.2796);
  }
  19% {
    -webkit-transform: scale(1.1558);
    transform: scale(1.1558);
  }
  20% {
    -webkit-transform: scale(1.07);
    transform: scale(1.07);
  }
  21% {
    -webkit-transform: scale(0.9823);
    transform: scale(0.9823);
  }
  22% {
    -webkit-transform: scale(0.901);
    transform: scale(0.901);
  }
  23% {
    -webkit-transform: scale(0.8328);
    transform: scale(0.8328);
  }
  25% {
    -webkit-transform: scale(0.7551);
    transform: scale(0.7551);
  }
  29% {
    -webkit-transform: scale(0.8516);
    transform: scale(0.8516);
  }
  31% {
    -webkit-transform: scale(0.973);
    transform: scale(0.973);
  }
  33% {
    -webkit-transform: scale(1.0857);
    transform: scale(1.0857);
  }
  35% {
    -webkit-transform: scale(1.1538);
    transform: scale(1.1538);
  }
  40% {
    -webkit-transform: scale(1.0771);
    transform: scale(1.0771);
  }
  42% {
    -webkit-transform: scale(0.9954);
    transform: scale(0.9954);
  }
  45% {
    -webkit-transform: scale(0.9057);
    transform: scale(0.9057);
  }
  52% {
    -webkit-transform: scale(0.9908);
    transform: scale(0.9908);
  }
  56% {
    -webkit-transform: scale(1.0623);
    transform: scale(1.0623);
  }
  64% {
    -webkit-transform: scale(0.9845);
    transform: scale(0.9845);
  }
  100% {
    -webkit-transform: scale(1);
    transform: scale(1);
  }
}
@-webkit-keyframes ldt-bounce-in {
  0% {
    -webkit-transform: scale(0);
    transform: scale(0);
  }
  5% {
    -webkit-transform: scale(0.0846);
    transform: scale(0.0846);
  }
  6% {
    -webkit-transform: scale(0.191);
    transform: scale(0.191);
  }
  7% {
    -webkit-transform: scale(0.3255);
    transform: scale(0.3255);
  }
  8% {
    -webkit-transform: scale(0.4804);
    transform: scale(0.4804);
  }
  9% {
    -webkit-transform: scale(0.646);
    transform: scale(0.646);
  }
  10% {
    -webkit-transform: scale(0.8116);
    transform: scale(0.8116);
  }
  11% {
    -webkit-transform: scale(0.9665);
    transform: scale(0.9665);
  }
  12% {
    -webkit-transform: scale(1.1);
    transform: scale(1.1);
  }
  13% {
    -webkit-transform: scale(1.2069);
    transform: scale(1.2069);
  }
  14% {
    -webkit-transform: scale(1.2796);
    transform: scale(1.2796);
  }
  19% {
    -webkit-transform: scale(1.1558);
    transform: scale(1.1558);
  }
  20% {
    -webkit-transform: scale(1.07);
    transform: scale(1.07);
  }
  21% {
    -webkit-transform: scale(0.9823);
    transform: scale(0.9823);
  }
  22% {
    -webkit-transform: scale(0.901);
    transform: scale(0.901);
  }
  23% {
    -webkit-transform: scale(0.8328);
    transform: scale(0.8328);
  }
  25% {
    -webkit-transform: scale(0.7551);
    transform: scale(0.7551);
  }
  29% {
    -webkit-transform: scale(0.8516);
    transform: scale(0.8516);
  }
  31% {
    -webkit-transform: scale(0.973);
    transform: scale(0.973);
  }
  33% {
    -webkit-transform: scale(1.0857);
    transform: scale(1.0857);
  }
  35% {
    -webkit-transform: scale(1.1538);
    transform: scale(1.1538);
  }
  40% {
    -webkit-transform: scale(1.0771);
    transform: scale(1.0771);
  }
  42% {
    -webkit-transform: scale(0.9954);
    transform: scale(0.9954);
  }
  45% {
    -webkit-transform: scale(0.9057);
    transform: scale(0.9057);
  }
  52% {
    -webkit-transform: scale(0.9908);
    transform: scale(0.9908);
  }
  56% {
    -webkit-transform: scale(1.0623);
    transform: scale(1.0623);
  }
  64% {
    -webkit-transform: scale(0.9845);
    transform: scale(0.9845);
  }
  100% {
    -webkit-transform: scale(1);
    transform: scale(1);
  }
}
.ldt-bounce-in {
  -webkit-transform: scale(0);
  transform: scale(0);
  -webkit-animation: ldt-bounce-in 1s ease-out forwards;
  animation: ldt-bounce-in 1s ease-out forwards;
}
</style></svg></svg>